<svg xmlns="http://www.w3.org/2000/svg" xmlns:v="https://vecta.io/nano" width="105.361" height="123.48" fill-rule="evenodd"><path d="M50.134 119.006l-45.726.053V14.978C4.42 9.146 9.146 4.42 14.978 4.408l33.453.04L50.094.04 14.978 0A15.03 15.03 0 0 0 0 14.978v108.5l48.458-.066z" fill="#fff"></path><path d="M56.85.053l-1.65 4.42 45.752.053v103.87a10.58 10.58 0 0 1-10.57 10.57l-33.48.04-1.65 4.408 35.13-.04a15.02 15.02 0 0 0 14.979-14.978V.12L56.85.053z" fill="#ef4136"></path><path d="M26.155 51.478h-1.187V53.5h1.24a4.46 4.46 0 0 1 2.864.66 2.67 2.67 0 0 1 .818 2.177 2.9 2.9 0 0 1-.858 2.336c-.845.56-1.853.82-2.864.74-.4 0-1.848-.026-2.626-.092l-.013-.08v-12.1l2.877-.066c1.768 0 2.64.673 2.64 2.06 0 1.6-.9 2.336-2.9 2.336zm5.37-2.415c.062-1.183-.437-2.326-1.346-3.085a5.81 5.81 0 0 0-3.721-1.069l-5.226.145h-.145v16.5h5.727a6.24 6.24 0 0 0 4.078-1.306c1.05-.868 1.636-2.176 1.584-3.537 0-.422-.08-3.827-2.626-4.5a3.48 3.48 0 0 0 1.676-3.14zM81.313 61.55h2.362V50.622h-3.942v2.045h1.58zm2.367-14.82h-2.362v2.362h2.362zM73.008 55.2c0-1.7.7-2.507 2.15-2.507h2.75v-2.046h-3.2a3.94 3.94 0 0 0-3.022 1.135 4.55 4.55 0 0 0-1.056 3.194v6.545h2.378zM30.642 82.003h-7.126V68.925h-2.48V84.26h9.607zm8.96.437h-2.8c-1.333 0-2.15-.422-2.15-2.507V73.81H32.28v6.334c0 2.573 1.4 4.183 3.748 4.315l5.938.026V73.808h-2.362v8.63zM57.8 68.82h-2.36v15.44h2.36zm3.247 4.777h-1.913v2.045H60.6c1.452 0 2.15.818 2.15 2.507v6.1h2.374v-6.332a4.52 4.52 0 0 0-1.054-3.2 3.94 3.94 0 0 0-3.022-1.135zm6.216 1.993h1.584v8.67h2.375V73.544h-3.96zm1.583-3.577h2.375V69.65h-2.375zM53.182 82.44h-4.3c-1.438 0-2.15-.83-2.15-2.507v-1.57c0-1.7.713-2.507 2.15-2.507h4.3V73.81h-4.737c-1.13-.012-2.214.452-2.987 1.277s-1.164 1.937-1.078 3.065v1.993a3.99 3.99 0 0 0 1.06 3.08c.776.828 1.87 1.288 3.004 1.26h4.738V82.44zm26.948-8.87h-5.622v10.676h2.375V75.62h2.785c1.333 0 2.164.422 2.164 2.507v6.123h2.362v-6.338c0-2.72-1.517-4.342-4.064-4.342zM26.908 27.198l2.005 5.374h-2.548l-.74 1.913h4.012l1.1 3.326h2.745L27.62 22.59h-1.227l-6.308 15.216h2.758zm8.67 10.6h2.362v-10.5h-3.946v2.045h1.584zM37.94 23.4h-2.362v2.375h2.362zm7.1 14.398h1.465v-2.045h-1.017c-1.452 0-2.15-.83-2.15-2.507v-4h3.167v-1.94h-3.167v-3.272l-2.375.9v8.512a4.53 4.53 0 0 0 1.06 3.193 3.9 3.9 0 0 0 3.018 1.148zm6.532-15.216h-2.375v15.216h2.375zM56.52 31.9v5.9h2.362v-6.1a4.56 4.56 0 0 0-1.043-3.207 3.94 3.94 0 0 0-3.022-1.135H52.89v2.045h1.478c1.452 0 2.15.818 2.15 2.507zm-15.2 25.798c0 .4-1.465 1.57-2.8 1.57-1.82 0-2.164-.58-2.164-1.716V55.4c0-1.7.713-2.507 2.164-2.507h2.8zm-7.324-2.534v2.692h.013c.066 1.016.567 3.616 4.05 3.616 1.23-.046 2.397-.56 3.26-1.438v1.438h2.362V50.846h-5.62a3.94 3.94 0 0 0-3.022 1.135 4.58 4.58 0 0 0-1.043 3.194zM53.6 57.7c0 .4-1.452 1.57-2.8 1.57-1.808 0-2.15-.58-2.15-1.716V55.4c0-1.7.713-2.507 2.15-2.507h2.8zm-7.3-.013v.172h.013c.066 1.016.567 3.616 4.05 3.616 1.227-.043 2.4-.558 3.246-1.438v1.432h2.375V44.91H53.6v5.938h-3.246a3.94 3.94 0 0 0-3.022 1.132 4.58 4.58 0 0 0-1.043 3.2v2.52zm19.426.01c0 .4-1.452 1.57-2.8 1.57-1.808 0-2.15-.58-2.15-1.716V55.4c0-1.7.713-2.507 2.15-2.507h2.8zm-7.3-.013v.172h.013c.066 1.016.567 3.616 4.05 3.616 1.227-.043 2.4-.558 3.246-1.438v1.438h2.375V50.846h-5.62a3.94 3.94 0 0 0-3.022 1.135 4.58 4.58 0 0 0-1.043 3.194v2.52zM24.928 98.75h-1.872l.937-2.1.937 2.1zm-1.267-3.18l-2.375 5.226h.845l.594-1.306h2.53l.58 1.306h.87l-2.36-5.226zm7.324 4.473h-1.042V96.36h1.043a1.84 1.84 0 0 1 1.667.895c.347.583.35 1.3 0 1.892s-1 .926-1.667.895zm0-4.447H29.15v5.2h1.834a2.6 2.6 0 0 0 0-5.2zm7.232 4.078l-1.68-4.078h-.88l2.23 5.24h.66l2.23-5.24h-.87zm7.153.448c-.787.047-1.524-.4-1.858-1.106a1.92 1.92 0 0 1 2.455-2.599 1.93 1.93 0 0 1 1.21 1.792 1.84 1.84 0 0 1-.5 1.338c-.34.36-.812.568-1.308.575zm0-4.606a2.65 2.65 0 0 0-1.897.787 2.67 2.67 0 0 0-.77 1.905 2.6 2.6 0 0 0 2.653 2.679 2.72 2.72 0 0 0 1.9-.79 2.6 2.6 0 0 0 .763-1.9 2.6 2.6 0 0 0-2.639-2.679zm7.588 3.14h1.518V99.7a2.2 2.2 0 0 1-1.32.435 1.79 1.79 0 0 1-1.834-1.94 1.82 1.82 0 0 1 1.768-1.913 1.98 1.98 0 0 1 1.425.528l.092.08.515-.607-.092-.08a2.73 2.73 0 0 0-1.927-.686 2.62 2.62 0 0 0-2.6 2.692c-.038.714.227 1.412.73 1.922s1.195.785 1.9.757a3.14 3.14 0 0 0 2.072-.792l.04-.04v-2.15h-2.3v.752zm8.234.093h-1.887l.95-2.1zm-1.28-3.18l-2.362 5.226h.845l.58-1.306h2.547l.58 1.306h.87l-2.377-5.226h-.686zm7.338 4.473h-1.043V96.36h1.043a1.84 1.84 0 0 1 1.667.895c.347.583.35 1.3 0 1.892s-1 .926-1.667.895zm0-4.447h-1.848v5.2h1.848a2.6 2.6 0 1 0 0-5.2zm7.9 4.526c-.788.05-1.527-.386-1.863-1.1s-.202-1.56.34-2.137 1.378-.76 2.112-.47a1.92 1.92 0 0 1 1.212 1.792 1.84 1.84 0 0 1-.497 1.336 1.83 1.83 0 0 1-1.303.578zm0-4.606a2.65 2.65 0 0 0-1.897.787 2.67 2.67 0 0 0-.77 1.905 2.6 2.6 0 0 0 2.652 2.679 2.68 2.68 0 0 0 1.89-.79c.5-.505.773-1.2.763-1.9a2.6 2.6 0 0 0-2.638-2.679zm7.226 2.297c-1.148-.25-1.24-.515-1.24-.858 0-.4.383-.673.924-.673a2.07 2.07 0 0 1 1.359.5l.092.08.475-.62-.092-.08a2.67 2.67 0 0 0-1.821-.633 1.57 1.57 0 0 0-1.188.365 1.58 1.58 0 0 0-.554 1.113c0 .977.7 1.333 1.755 1.557 1.1.238 1.2.5 1.2.83 0 .435-.4.726-1 .726-.608.013-1.192-.232-1.6-.673l-.106-.08-.5.594.092.08c.567.543 1.326.842 2.1.83A1.62 1.62 0 0 0 84.1 99.34c0-.818-.515-1.267-1.716-1.53z" fill="#fff"></path></svg>