<svg xmlns="http://www.w3.org/2000/svg" width="451" height="344" viewBox="0 0 451 344" fill="none"><rect x="150.534" width="149.931" height="3" rx="1.5" fill="#BD1F31"></rect><rect x="159.5" y="7.40332" width="132" height="3" rx="1.5" fill="#BD1F31"></rect><path d="M159.004 74.7735H167.108C180.59 74.7735 191.52 85.7027 191.52 99.1846V139.121C173.562 139.121 159.004 124.564 159.004 106.606V74.7735Z" fill="#BD1F31"></path><path d="M291.996 74.7735H283.892C270.41 74.7735 259.48 85.7027 259.48 99.1846V139.121C277.438 139.121 291.996 124.564 291.996 106.606V74.7735Z" fill="#BD1F31"></path><path d="M225.504 147.169C232.202 147.169 238.706 146.295 244.919 144.451V109.795C244.919 104.068 243.172 99.6021 239.192 95.3308C235.212 91.0595 230.649 88.9238 225.504 88.9238C220.359 88.9238 215.797 90.8653 212.108 94.8454C208.225 98.6313 206.089 103.097 206.089 108.921V144.451C212.302 146.295 218.806 147.169 225.504 147.169ZM196.382 35.5325C196.382 43.5897 189.878 50.0937 181.82 50.0937C173.763 50.0937 167.259 43.5897 167.259 35.5325C167.259 27.4752 173.763 20.9712 181.82 20.9712C189.878 20.9712 196.382 27.4752 196.382 35.5325ZM283.749 35.5325C283.749 43.5897 277.245 50.0937 269.188 50.0937C261.131 50.0937 254.627 43.5897 254.627 35.5325C254.627 27.4752 261.131 20.9712 269.188 20.9712C277.245 20.9712 283.749 27.4752 283.749 35.5325ZM240.065 59.8013C240.065 67.8585 233.561 74.3625 225.504 74.3625C217.447 74.3625 210.943 67.8585 210.943 59.8013C210.943 51.744 217.447 45.24 225.504 45.24C233.561 45.24 240.065 51.744 240.065 59.8013Z" fill="#BD1F31"></path><rect width="149.931" height="3" rx="1.5" transform="matrix(1 0 0 -1 150.534 168.14)" fill="#BD1F31"></rect><rect width="132" height="3" rx="1.5" transform="matrix(1 0 0 -1 159.5 160.737)" fill="#BD1F31"></rect><path d="M53.377 238.1C53.377 238.734 53.1732 239.255 52.7655 239.663C52.3579 240.07 51.837 240.274 51.2028 240.274H34.6924C34.1035 240.274 33.6053 240.07 33.1976 239.663C32.7899 239.255 32.5861 238.734 32.5861 238.1C32.5861 237.149 33.0617 236.469 34.0129 236.062C34.6018 235.835 35.0094 235.405 35.2359 234.771C35.5077 234.091 35.5304 233.457 35.3039 232.868L32.7899 225.598H15.668L13.2899 232.325C12.7464 233.955 13.2673 235.292 14.8526 236.333C15.5321 236.786 15.8718 237.375 15.8718 238.1C15.8718 238.734 15.668 239.255 15.2603 239.663C14.8526 240.07 14.3317 240.274 13.6976 240.274H6.15579C5.52164 240.229 5.00073 240.002 4.59307 239.595C4.2307 239.187 4.04951 238.689 4.04951 238.1C4.04951 237.149 4.50247 236.492 5.4084 236.13C5.45369 236.084 5.63488 236.016 5.95195 235.926C6.31432 235.79 6.63139 235.654 6.90317 235.518C7.17495 235.337 7.49202 235.133 7.85439 234.907C8.21676 234.635 8.55648 234.272 8.87356 233.819C9.23592 233.367 9.53035 232.868 9.75683 232.325L23.2098 193.936C24.0251 191.626 25.9049 190.471 28.8492 190.471C32.1105 190.471 34.0809 191.671 34.7603 194.072L48.4171 232.461C49.006 234.182 50.1837 235.405 51.9502 236.13C52.9014 236.537 53.377 237.194 53.377 238.1ZM16.7551 222.541H31.7028L24.3648 201.206L16.7551 222.541ZM74.4822 236.333C75.4787 236.786 75.977 237.421 75.977 238.236C75.977 238.825 75.7732 239.323 75.3655 239.731C75.0031 240.093 74.5502 240.274 74.0066 240.274H58.0397C57.4509 240.274 56.9753 240.093 56.6129 239.731C56.2505 239.323 56.0693 238.825 56.0693 238.236C56.0693 237.375 56.5223 236.764 57.4282 236.401C59.1948 235.722 60.078 234.68 60.078 233.276V201.886C60.078 200.799 59.9195 199.915 59.6024 199.236C59.2854 198.511 58.9909 198.058 58.7192 197.877C58.4474 197.65 57.9944 197.379 57.3603 197.062C56.4996 196.609 56.0693 195.975 56.0693 195.159C56.0693 194.072 56.5449 193.438 57.4962 193.257L70.0658 191.422C71.3341 191.241 71.9683 191.785 71.9683 193.053V233.276C71.9683 234.544 72.8063 235.563 74.4822 236.333ZM93.7789 199.847C92.6465 200.934 90.9932 201.478 88.819 201.478C86.6448 201.478 84.9915 200.934 83.8591 199.847C82.772 198.76 82.2284 197.492 82.2284 196.042C82.2284 194.593 82.772 193.347 83.8591 192.306C84.9915 191.218 86.6448 190.675 88.819 190.675C90.9932 190.675 92.6465 191.218 93.7789 192.306C94.9566 193.347 95.5455 194.593 95.5455 196.042C95.5455 197.492 94.9566 198.76 93.7789 199.847ZM97.1761 236.333C98.1726 236.65 98.6709 237.285 98.6709 238.236C98.6709 238.825 98.4671 239.323 98.0594 239.731C97.697 240.093 97.2441 240.274 96.7005 240.274H80.6657C80.0768 240.274 79.6012 240.093 79.2388 239.731C78.8765 239.323 78.6953 238.825 78.6953 238.236C78.6953 237.375 79.1483 236.764 80.0542 236.401C81.8207 235.722 82.704 234.68 82.704 233.276V216.765C82.704 215.678 82.5455 214.795 82.2284 214.116C81.9113 213.391 81.5943 212.915 81.2772 212.689C81.0054 212.462 80.5751 212.213 79.9862 211.941C79.1256 211.534 78.6953 210.9 78.6953 210.039C78.6953 209.586 78.8312 209.178 79.103 208.816C79.3747 208.408 79.7145 208.182 80.1221 208.137L92.7598 206.302C94.028 206.121 94.6622 206.664 94.6622 207.933V233.276C94.6622 234.816 95.5002 235.835 97.1761 236.333ZM140.599 236.333C141.596 236.65 142.094 237.285 142.094 238.236C142.094 238.825 141.89 239.323 141.483 239.731C141.12 240.093 140.667 240.274 140.124 240.274H124.565C123.976 240.274 123.5 240.093 123.138 239.731C122.775 239.323 122.594 238.825 122.594 238.236C122.594 237.33 123.047 236.718 123.953 236.401C125.403 235.903 126.127 234.861 126.127 233.276V219.959C126.127 218.781 125.969 217.762 125.652 216.901C125.38 216.041 125.063 215.429 124.7 215.067C124.338 214.659 123.885 214.365 123.342 214.184C122.798 213.957 122.436 213.844 122.254 213.844C122.073 213.799 121.824 213.776 121.507 213.776C120.511 213.776 119.514 214.161 118.518 214.931C117.521 215.701 117.023 216.947 117.023 218.668V233.276C117.023 234.952 117.702 235.971 119.061 236.333C120.058 236.605 120.556 237.239 120.556 238.236C120.556 238.825 120.352 239.323 119.944 239.731C119.582 240.093 119.129 240.274 118.585 240.274H103.026C102.437 240.274 101.962 240.093 101.599 239.731C101.237 239.323 101.056 238.825 101.056 238.236C101.056 237.33 101.509 236.718 102.415 236.401C104.181 235.812 105.065 234.771 105.065 233.276V216.765C105.065 215.678 104.906 214.795 104.589 214.116C104.272 213.391 103.955 212.915 103.638 212.689C103.366 212.462 102.936 212.213 102.347 211.941C101.486 211.534 101.056 210.9 101.056 210.039C101.056 208.997 101.531 208.363 102.483 208.137L115.12 206.302C116.389 206.121 117.023 206.664 117.023 207.933V211.738C117.838 210.288 119.061 209.02 120.692 207.933C122.368 206.846 124.18 206.302 126.127 206.302C129.796 206.302 132.695 207.412 134.824 209.631C136.998 211.806 138.085 214.818 138.085 218.668V233.276C138.085 234.816 138.923 235.835 140.599 236.333ZM157.156 222.473V224.511C157.156 233.48 159.76 237.964 164.969 237.964C165.966 237.964 166.962 237.715 167.959 237.217C169 236.673 169.77 235.948 170.269 235.042C170.541 234.544 170.631 233.616 170.541 232.257C170.45 230.853 170.654 229.675 171.152 228.724C171.877 227.41 172.987 226.708 174.481 226.617C175.976 226.527 177.154 227.116 178.014 228.384C178.92 229.652 178.943 231.328 178.082 233.412C177.629 234.499 176.882 235.518 175.84 236.469C174.028 238.145 172.216 239.346 170.405 240.07C168.593 240.75 166.102 241.09 162.931 241.09C156.861 241.09 152.264 239.527 149.138 236.401C146.013 233.276 144.45 228.86 144.45 223.152C144.45 217.988 145.922 213.799 148.866 210.583C151.856 207.367 156.363 205.758 162.387 205.758C167.868 205.758 171.967 207.027 174.685 209.563C177.403 212.1 178.92 215.588 179.237 220.027C179.283 220.661 179.26 221.159 179.169 221.522C179.079 221.839 178.807 222.065 178.354 222.201C177.901 222.337 177.516 222.427 177.199 222.473C176.927 222.473 176.338 222.473 175.433 222.473C174.98 222.473 174.64 222.473 174.413 222.473H157.156ZM162.387 208.408C160.575 208.408 159.284 209.541 158.514 211.806C157.744 214.07 157.359 216.675 157.359 219.619H164.222C165.898 219.619 166.736 218.94 166.736 217.581C166.736 214.546 166.305 212.258 165.445 210.718C164.629 209.178 163.61 208.408 162.387 208.408ZM233.582 235.518C234.442 235.926 234.873 236.56 234.873 237.421C234.873 238.644 234.193 239.3 232.834 239.391L220.876 240.274C219.608 240.365 218.974 239.821 218.974 238.644V236.673C217.116 239.074 214.603 240.274 211.432 240.274C208.397 240.274 205.815 239.844 203.686 238.983C201.603 238.123 199.995 236.854 198.862 235.178C197.775 233.502 197.005 231.691 196.552 229.743C196.099 227.795 195.873 225.508 195.873 222.88C195.873 220.842 196.008 219.008 196.28 217.377C196.552 215.746 197.028 214.184 197.707 212.689C198.432 211.149 199.36 209.88 200.493 208.884C201.67 207.842 203.165 207.027 204.977 206.438C206.834 205.849 208.986 205.555 211.432 205.555C214.738 205.555 217.252 206.619 218.974 208.748V201.886C218.974 200.799 218.815 199.915 218.498 199.236C218.181 198.511 217.887 198.058 217.615 197.877C217.343 197.65 216.89 197.379 216.256 197.062C215.395 196.745 214.965 196.11 214.965 195.159C214.965 194.072 215.441 193.438 216.392 193.257L228.961 191.422C230.23 191.241 230.864 191.785 230.864 193.053V230.694C230.864 231.781 231.022 232.687 231.339 233.412C231.657 234.091 231.951 234.544 232.223 234.771C232.54 234.997 232.993 235.246 233.582 235.518ZM213.47 237.013C215.101 237.013 216.414 235.835 217.411 233.48C218.453 231.079 218.974 227.795 218.974 223.628V222.88C218.974 218.894 218.453 215.497 217.411 212.689C216.414 209.835 215.101 208.408 213.47 208.408C211.885 208.408 210.639 209.812 209.733 212.621C208.827 215.384 208.374 218.804 208.374 222.88C208.374 226.957 208.827 230.332 209.733 233.004C210.639 235.677 211.885 237.013 213.47 237.013ZM248.283 240.41C245.339 240.41 242.757 239.617 240.537 238.032C238.363 236.447 237.276 234.001 237.276 230.694C237.276 228.837 237.752 227.229 238.703 225.87C239.699 224.466 240.9 223.401 242.304 222.677C243.708 221.952 245.271 221.386 246.992 220.978C248.759 220.525 250.344 220.231 251.748 220.095C253.152 219.914 254.398 219.8 255.485 219.755C255.621 219.755 255.712 219.755 255.757 219.755C255.848 219.755 255.938 219.755 256.029 219.755V218.668C256.029 218.532 256.029 218.351 256.029 218.124C256.029 216.403 256.006 215.135 255.961 214.319C255.915 213.459 255.78 212.508 255.553 211.466C255.372 210.379 255.032 209.609 254.534 209.156C254.036 208.703 253.379 208.476 252.564 208.476C251.341 208.476 250.367 208.929 249.642 209.835C248.963 210.741 248.623 211.738 248.623 212.825C248.623 214.229 248.238 215.429 247.468 216.426C246.607 217.558 245.565 218.238 244.342 218.464C243.119 218.691 242.055 218.509 241.149 217.921C240.288 217.332 239.609 216.539 239.111 215.542C238.612 214.546 238.635 213.414 239.179 212.145C240.084 209.926 241.783 208.318 244.274 207.321C246.811 206.325 249.574 205.826 252.564 205.826C262.846 205.826 267.987 210.265 267.987 219.144V230.83C267.987 231.917 268.123 232.823 268.395 233.548C268.712 234.227 269.029 234.68 269.346 234.907C269.663 235.133 270.116 235.382 270.705 235.654C271.565 236.062 271.996 236.696 271.996 237.556C271.996 238.779 271.316 239.436 269.957 239.527L257.931 240.41C256.663 240.501 256.029 239.957 256.029 238.779V236.469C255.168 237.738 254.149 238.711 252.971 239.391C251.839 240.07 250.276 240.41 248.283 240.41ZM249.914 230.762C249.914 234.386 250.638 236.198 252.088 236.198C253.13 236.198 254.104 235.246 255.01 233.344C255.689 231.849 256.029 230.241 256.029 228.52V222.473C254.081 222.473 252.564 223.22 251.476 224.715C250.435 226.164 249.914 228.18 249.914 230.762ZM311.07 210.107C311.749 210.515 312.814 211.126 314.263 211.941C315.713 212.711 316.755 213.3 317.389 213.708C318.023 214.07 318.929 214.614 320.107 215.339C321.33 216.018 322.213 216.584 322.756 217.037C323.345 217.49 324.07 218.056 324.931 218.736C325.791 219.415 326.403 220.049 326.765 220.638C327.173 221.182 327.603 221.816 328.056 222.541C328.509 223.265 328.826 224.013 329.007 224.783C329.188 225.508 329.279 226.3 329.279 227.161C329.279 231.192 327.422 234.544 323.708 237.217C319.993 239.844 314.807 241.157 308.148 241.157C298.636 241.157 292.227 237.964 288.92 231.577C288.377 230.535 288.037 229.358 287.901 228.044C287.81 226.731 288.059 225.44 288.648 224.171C289.282 222.858 290.302 221.952 291.706 221.454C293.246 220.91 294.718 220.978 296.122 221.657C297.572 222.337 298.546 223.65 299.044 225.598C299.225 226.368 299.27 227.387 299.18 228.656C299.134 229.924 299.157 230.898 299.248 231.577C299.519 233.117 300.403 234.59 301.897 235.994C303.438 237.353 305.521 238.032 308.148 238.032C310.775 238.032 312.836 237.421 314.331 236.198C315.826 234.929 316.573 233.299 316.573 231.306C316.573 230.218 316.347 229.267 315.894 228.452C315.486 227.591 314.671 226.731 313.448 225.87C312.225 225.009 311.183 224.353 310.323 223.9C309.462 223.401 307.922 222.586 305.702 221.454C303.256 220.185 301.15 219.008 299.384 217.921C297.662 216.833 295.896 215.542 294.084 214.048C292.272 212.553 290.868 210.968 289.871 209.292C288.92 207.57 288.444 205.804 288.444 203.992C288.444 200.006 290.211 196.699 293.744 194.072C297.323 191.4 302.396 190.063 308.964 190.063C318.204 190.063 324.274 193.325 327.173 199.847C327.49 200.527 327.739 201.319 327.92 202.225C328.101 203.086 328.192 204.06 328.192 205.147C328.192 206.189 327.852 207.14 327.173 208.001C326.539 208.816 325.587 209.382 324.319 209.699C322.734 210.062 321.284 209.79 319.971 208.884C318.702 207.978 317.864 206.891 317.457 205.623C317.185 204.853 317.072 203.833 317.117 202.565C317.208 201.297 317.208 200.3 317.117 199.576C316.8 197.854 316.007 196.36 314.739 195.091C313.516 193.823 311.591 193.189 308.964 193.189C306.472 193.189 304.547 193.846 303.188 195.159C301.875 196.427 301.218 198.081 301.218 200.119C301.218 202.112 301.988 203.811 303.528 205.215C305.068 206.574 307.582 208.204 311.07 210.107ZM348.105 199.847C346.973 200.934 345.32 201.478 343.145 201.478C340.971 201.478 339.318 200.934 338.186 199.847C337.098 198.76 336.555 197.492 336.555 196.042C336.555 194.593 337.098 193.347 338.186 192.306C339.318 191.218 340.971 190.675 343.145 190.675C345.32 190.675 346.973 191.218 348.105 192.306C349.283 193.347 349.872 194.593 349.872 196.042C349.872 197.492 349.283 198.76 348.105 199.847ZM351.503 236.333C352.499 236.65 352.997 237.285 352.997 238.236C352.997 238.825 352.794 239.323 352.386 239.731C352.024 240.093 351.571 240.274 351.027 240.274H334.992C334.403 240.274 333.928 240.093 333.565 239.731C333.203 239.323 333.022 238.825 333.022 238.236C333.022 237.375 333.475 236.764 334.381 236.401C336.147 235.722 337.03 234.68 337.03 233.276V216.765C337.03 215.678 336.872 214.795 336.555 214.116C336.238 213.391 335.921 212.915 335.604 212.689C335.332 212.462 334.902 212.213 334.313 211.941C333.452 211.534 333.022 210.9 333.022 210.039C333.022 209.586 333.158 209.178 333.429 208.816C333.701 208.408 334.041 208.182 334.449 208.137L347.086 206.302C348.355 206.121 348.989 206.664 348.989 207.933V233.276C348.989 234.816 349.827 235.835 351.503 236.333ZM373.795 236.333C374.792 236.786 375.29 237.421 375.29 238.236C375.29 238.825 375.086 239.323 374.678 239.731C374.316 240.093 373.863 240.274 373.32 240.274H357.353C356.764 240.274 356.288 240.093 355.926 239.731C355.564 239.323 355.382 238.825 355.382 238.236C355.382 237.375 355.835 236.764 356.741 236.401C358.508 235.722 359.391 234.68 359.391 233.276V201.886C359.391 200.799 359.232 199.915 358.915 199.236C358.598 198.511 358.304 198.058 358.032 197.877C357.76 197.65 357.307 197.379 356.673 197.062C355.813 196.609 355.382 195.975 355.382 195.159C355.382 194.072 355.858 193.438 356.809 193.257L369.379 191.422C370.647 191.241 371.281 191.785 371.281 193.053V233.276C371.281 234.544 372.119 235.563 373.795 236.333ZM411.165 208.34C411.165 209.156 410.803 209.745 410.078 210.107C410.033 210.152 409.784 210.265 409.331 210.447C408.878 210.583 408.47 210.741 408.108 210.922C407.791 211.103 407.406 211.443 406.953 211.941C406.5 212.394 406.16 212.938 405.933 213.572L397.033 238.44C396.444 239.934 395.108 240.682 393.024 240.682C390.578 240.682 389.061 239.867 388.472 238.236L379.367 213.164C378.96 211.987 377.94 210.99 376.31 210.175C375.404 209.722 374.951 209.11 374.951 208.34C374.951 207.752 375.132 207.276 375.494 206.914C375.857 206.506 376.332 206.302 376.921 206.302H392.548C393.137 206.302 393.613 206.506 393.975 206.914C394.383 207.276 394.587 207.752 394.587 208.34C394.587 209.11 394.134 209.722 393.228 210.175C392.005 210.809 391.575 211.783 391.937 213.096L397.372 228.52L402.876 213.164C403.057 212.938 403.102 212.666 403.012 212.349C402.921 212.032 402.876 211.806 402.876 211.67C402.876 211.534 402.763 211.353 402.536 211.126C402.355 210.9 402.219 210.764 402.129 210.718C402.083 210.628 401.925 210.492 401.653 210.311C401.426 210.13 401.291 210.016 401.245 209.971C400.656 209.518 400.362 208.975 400.362 208.34C400.362 207.072 401.019 206.393 402.332 206.302H409.195C410.508 206.393 411.165 207.072 411.165 208.34ZM423.585 240.41C420.64 240.41 418.058 239.617 415.839 238.032C413.665 236.447 412.578 234.001 412.578 230.694C412.578 228.837 413.053 227.229 414.004 225.87C415.001 224.466 416.201 223.401 417.605 222.677C419.01 221.952 420.572 221.386 422.294 220.978C424.06 220.525 425.646 220.231 427.05 220.095C428.454 219.914 429.7 219.8 430.787 219.755C430.923 219.755 431.013 219.755 431.058 219.755C431.149 219.755 431.24 219.755 431.33 219.755V218.668C431.33 218.532 431.33 218.351 431.33 218.124C431.33 216.403 431.308 215.135 431.262 214.319C431.217 213.459 431.081 212.508 430.855 211.466C430.673 210.379 430.334 209.609 429.835 209.156C429.337 208.703 428.68 208.476 427.865 208.476C426.642 208.476 425.668 208.929 424.943 209.835C424.264 210.741 423.924 211.738 423.924 212.825C423.924 214.229 423.539 215.429 422.769 216.426C421.909 217.558 420.867 218.238 419.644 218.464C418.421 218.691 417.356 218.509 416.45 217.921C415.59 217.332 414.91 216.539 414.412 215.542C413.914 214.546 413.936 213.414 414.48 212.145C415.386 209.926 417.085 208.318 419.576 207.321C422.112 206.325 424.875 205.826 427.865 205.826C438.147 205.826 443.288 210.265 443.288 219.144V230.83C443.288 231.917 443.424 232.823 443.696 233.548C444.013 234.227 444.33 234.68 444.647 234.907C444.964 235.133 445.417 235.382 446.006 235.654C446.867 236.062 447.297 236.696 447.297 237.556C447.297 238.779 446.618 239.436 445.259 239.527L433.233 240.41C431.964 240.501 431.33 239.957 431.33 238.779V236.469C430.47 237.738 429.45 238.711 428.273 239.391C427.14 240.07 425.578 240.41 423.585 240.41ZM425.215 230.762C425.215 234.386 425.94 236.198 427.389 236.198C428.431 236.198 429.405 235.246 430.311 233.344C430.99 231.849 431.33 230.241 431.33 228.52V222.473C429.382 222.473 427.865 223.22 426.778 224.715C425.736 226.164 425.215 228.18 425.215 230.762ZM90.0181 277.931C91.83 278.293 93.5512 279.607 95.1819 281.872C96.8125 284.091 97.6279 286.65 97.6279 289.549C97.6279 293.49 96.1784 296.774 93.2794 299.401C90.3805 301.983 86.3944 303.274 81.3212 303.274H56.4536C55.8195 303.274 55.2759 303.07 54.823 302.663C54.4153 302.21 54.2115 301.689 54.2115 301.1C54.2115 300.103 54.6871 299.447 55.6383 299.13C57.5408 298.541 58.492 297.318 58.492 295.461V262.168C58.492 260.537 57.5408 259.314 55.6383 258.499C54.6871 258.091 54.2115 257.434 54.2115 256.529C54.2115 255.94 54.4153 255.441 54.823 255.034C55.2759 254.581 55.8195 254.354 56.4536 254.354H79.4867C84.6505 254.354 88.7045 255.532 91.6488 257.887C94.6383 260.198 96.1331 263.368 96.1331 267.4C96.1331 272.427 94.0948 275.938 90.0181 277.931ZM80.0982 274.534C82.0913 272.948 83.0878 270.57 83.0878 267.4C83.0878 264.229 82.2272 261.76 80.5059 259.994C78.83 258.227 77.0861 257.344 75.2742 257.344H74.323C72.1035 257.344 70.9937 258.522 70.9937 260.877V276.844H72.3526C75.5233 276.844 78.1052 276.074 80.0982 274.534ZM75.546 300.285C78.309 300.285 80.5059 299.333 82.1366 297.431C83.7672 295.529 84.5826 292.901 84.5826 289.549C84.5826 286.333 83.6313 283.933 81.7289 282.347C79.8265 280.762 76.8369 279.969 72.7603 279.969H70.9937V295.936C70.9937 298.835 72.3073 300.285 74.9345 300.285H75.546ZM114.093 285.473V287.511C114.093 296.48 116.698 300.964 121.907 300.964C122.903 300.964 123.9 300.715 124.896 300.217C125.938 299.673 126.708 298.948 127.206 298.042C127.478 297.544 127.569 296.616 127.478 295.257C127.388 293.853 127.591 292.675 128.09 291.724C128.814 290.41 129.924 289.708 131.419 289.617C132.914 289.527 134.091 290.116 134.952 291.384C135.858 292.652 135.881 294.328 135.02 296.412C134.567 297.499 133.82 298.518 132.778 299.469C130.966 301.145 129.154 302.346 127.342 303.07C125.53 303.75 123.039 304.09 119.868 304.09C113.799 304.09 109.201 302.527 106.076 299.401C102.95 296.276 101.388 291.86 101.388 286.152C101.388 280.988 102.86 276.799 105.804 273.583C108.794 270.367 113.301 268.758 119.325 268.758C124.806 268.758 128.905 270.027 131.623 272.563C134.341 275.1 135.858 278.588 136.175 283.027C136.22 283.661 136.198 284.159 136.107 284.522C136.017 284.839 135.745 285.065 135.292 285.201C134.839 285.337 134.454 285.427 134.137 285.473C133.865 285.473 133.276 285.473 132.37 285.473C131.917 285.473 131.578 285.473 131.351 285.473H114.093ZM119.325 271.408C117.513 271.408 116.222 272.541 115.452 274.806C114.682 277.07 114.297 279.675 114.297 282.619H121.159C122.835 282.619 123.673 281.94 123.673 280.581C123.673 277.546 123.243 275.258 122.382 273.718C121.567 272.178 120.548 271.408 119.325 271.408ZM162.921 269.302C166.001 269.302 168.152 270.457 169.375 272.767C170.372 274.715 170.327 276.481 169.24 278.067C168.288 279.335 166.884 279.992 165.027 280.037C162.49 280.037 160.837 278.814 160.067 276.368C159.976 276.096 159.909 275.847 159.863 275.621C159.863 275.349 159.841 275.191 159.795 275.145C159.795 275.055 159.705 275.009 159.523 275.009C158.753 275.009 157.825 275.666 156.738 276.98C155.696 278.293 155.175 279.969 155.175 282.008V296.276C155.175 297.635 156.013 298.654 157.689 299.333C158.686 299.696 159.184 300.33 159.184 301.236C159.184 301.825 158.98 302.323 158.572 302.731C158.21 303.093 157.757 303.274 157.213 303.274H141.179C140.59 303.274 140.114 303.093 139.752 302.731C139.389 302.323 139.208 301.825 139.208 301.236C139.208 300.375 139.661 299.764 140.567 299.401C142.334 298.631 143.217 297.59 143.217 296.276V279.765C143.217 278.678 143.058 277.795 142.741 277.116C142.424 276.391 142.13 275.938 141.858 275.757C141.586 275.53 141.133 275.258 140.499 274.941C139.638 274.624 139.208 273.99 139.208 273.039C139.208 271.997 139.684 271.363 140.635 271.137L153.273 269.302C154.541 269.121 155.175 269.664 155.175 270.933V273.854C155.673 272.586 156.738 271.522 158.368 270.661C159.999 269.755 161.517 269.302 162.921 269.302ZM211.264 299.333C212.261 299.65 212.759 300.285 212.759 301.236C212.759 301.825 212.555 302.323 212.147 302.731C211.785 303.093 211.332 303.274 210.788 303.274H195.229C194.64 303.274 194.165 303.093 193.802 302.731C193.44 302.323 193.259 301.825 193.259 301.236C193.259 300.33 193.712 299.718 194.618 299.401C196.067 298.903 196.792 297.861 196.792 296.276V282.959C196.792 281.781 196.633 280.762 196.316 279.901C196.045 279.041 195.728 278.429 195.365 278.067C195.003 277.659 194.55 277.365 194.006 277.184C193.463 276.957 193.1 276.844 192.919 276.844C192.738 276.799 192.489 276.776 192.172 276.776C191.175 276.776 190.179 277.161 189.182 277.931C188.186 278.701 187.687 279.947 187.687 281.668V296.276C187.687 297.952 188.367 298.971 189.726 299.333C190.722 299.605 191.221 300.239 191.221 301.236C191.221 301.825 191.017 302.323 190.609 302.731C190.247 303.093 189.794 303.274 189.25 303.274H173.691C173.102 303.274 172.626 303.093 172.264 302.731C171.902 302.323 171.721 301.825 171.721 301.236C171.721 300.33 172.173 299.718 173.079 299.401C174.846 298.812 175.729 297.771 175.729 296.276V279.765C175.729 278.678 175.571 277.795 175.254 277.116C174.937 276.391 174.619 275.915 174.302 275.689C174.031 275.462 173.6 275.213 173.011 274.941C172.151 274.534 171.721 273.9 171.721 273.039C171.721 271.997 172.196 271.363 173.147 271.137L185.785 269.302C187.053 269.121 187.687 269.664 187.687 270.933V274.738C188.503 273.288 189.726 272.02 191.356 270.933C193.032 269.846 194.844 269.302 196.792 269.302C200.461 269.302 203.36 270.412 205.489 272.631C207.663 274.806 208.75 277.818 208.75 281.668V296.276C208.75 297.816 209.588 298.835 211.264 299.333ZM226.122 303.41C223.177 303.41 220.595 302.617 218.376 301.032C216.202 299.447 215.115 297.001 215.115 293.694C215.115 291.837 215.59 290.229 216.541 288.87C217.538 287.466 218.738 286.401 220.142 285.677C221.547 284.952 223.109 284.386 224.831 283.978C226.597 283.525 228.183 283.231 229.587 283.095C230.991 282.914 232.237 282.8 233.324 282.755C233.46 282.755 233.55 282.755 233.595 282.755C233.686 282.755 233.777 282.755 233.867 282.755V281.668C233.867 281.532 233.867 281.351 233.867 281.124C233.867 279.403 233.845 278.135 233.799 277.319C233.754 276.459 233.618 275.508 233.392 274.466C233.21 273.379 232.871 272.609 232.372 272.156C231.874 271.703 231.217 271.476 230.402 271.476C229.179 271.476 228.205 271.929 227.48 272.835C226.801 273.741 226.461 274.738 226.461 275.825C226.461 277.229 226.076 278.429 225.306 279.426C224.446 280.558 223.404 281.238 222.181 281.464C220.958 281.691 219.893 281.509 218.987 280.921C218.127 280.332 217.447 279.539 216.949 278.542C216.451 277.546 216.474 276.414 217.017 275.145C217.923 272.926 219.622 271.318 222.113 270.321C224.649 269.325 227.413 268.826 230.402 268.826C240.684 268.826 245.825 273.265 245.825 282.144V293.83C245.825 294.917 245.961 295.823 246.233 296.548C246.55 297.227 246.867 297.68 247.184 297.907C247.501 298.133 247.954 298.382 248.543 298.654C249.404 299.062 249.834 299.696 249.834 300.556C249.834 301.779 249.155 302.436 247.796 302.527L235.77 303.41C234.501 303.501 233.867 302.957 233.867 301.779V299.469C233.007 300.738 231.987 301.711 230.81 302.391C229.677 303.07 228.115 303.41 226.122 303.41ZM227.752 293.762C227.752 297.386 228.477 299.198 229.926 299.198C230.968 299.198 231.942 298.246 232.848 296.344C233.528 294.849 233.867 293.241 233.867 291.52V285.473C231.92 285.473 230.402 286.22 229.315 287.715C228.273 289.164 227.752 291.18 227.752 293.762ZM275.918 269.302C278.998 269.302 281.15 270.457 282.373 272.767C283.369 274.715 283.324 276.481 282.237 278.067C281.285 279.335 279.881 279.992 278.024 280.037C275.488 280.037 273.834 278.814 273.064 276.368C272.974 276.096 272.906 275.847 272.86 275.621C272.86 275.349 272.838 275.191 272.792 275.145C272.792 275.055 272.702 275.009 272.521 275.009C271.751 275.009 270.822 275.666 269.735 276.98C268.693 278.293 268.172 279.969 268.172 282.008V296.276C268.172 297.635 269.01 298.654 270.686 299.333C271.683 299.696 272.181 300.33 272.181 301.236C272.181 301.825 271.977 302.323 271.569 302.731C271.207 303.093 270.754 303.274 270.211 303.274H254.176C253.587 303.274 253.111 303.093 252.749 302.731C252.386 302.323 252.205 301.825 252.205 301.236C252.205 300.375 252.658 299.764 253.564 299.401C255.331 298.631 256.214 297.59 256.214 296.276V279.765C256.214 278.678 256.055 277.795 255.738 277.116C255.421 276.391 255.127 275.938 254.855 275.757C254.583 275.53 254.13 275.258 253.496 274.941C252.636 274.624 252.205 273.99 252.205 273.039C252.205 271.997 252.681 271.363 253.632 271.137L266.27 269.302C267.538 269.121 268.172 269.664 268.172 270.933V273.854C268.67 272.586 269.735 271.522 271.366 270.661C272.996 269.755 274.514 269.302 275.918 269.302ZM322.427 298.518C323.287 298.926 323.718 299.56 323.718 300.421C323.718 301.644 323.038 302.3 321.679 302.391L309.721 303.274C308.453 303.365 307.819 302.821 307.819 301.644V299.673C305.962 302.074 303.448 303.274 300.277 303.274C297.242 303.274 294.66 302.844 292.531 301.983C290.448 301.123 288.84 299.854 287.707 298.178C286.62 296.502 285.85 294.691 285.397 292.743C284.944 290.795 284.718 288.508 284.718 285.88C284.718 283.842 284.854 282.008 285.125 280.377C285.397 278.746 285.873 277.184 286.552 275.689C287.277 274.149 288.205 272.88 289.338 271.884C290.516 270.842 292.01 270.027 293.822 269.438C295.679 268.849 297.831 268.555 300.277 268.555C303.584 268.555 306.097 269.619 307.819 271.748V264.886C307.819 263.799 307.66 262.915 307.343 262.236C307.026 261.511 306.732 261.058 306.46 260.877C306.188 260.65 305.735 260.379 305.101 260.062C304.24 259.745 303.81 259.11 303.81 258.159C303.81 257.072 304.286 256.438 305.237 256.257L317.807 254.422C319.075 254.241 319.709 254.785 319.709 256.053V293.694C319.709 294.781 319.867 295.687 320.185 296.412C320.502 297.091 320.796 297.544 321.068 297.771C321.385 297.997 321.838 298.246 322.427 298.518ZM302.315 300.013C303.946 300.013 305.259 298.835 306.256 296.48C307.298 294.079 307.819 290.795 307.819 286.628V285.88C307.819 281.894 307.298 278.497 306.256 275.689C305.259 272.835 303.946 271.408 302.315 271.408C300.73 271.408 299.484 272.812 298.578 275.621C297.672 278.384 297.219 281.804 297.219 285.88C297.219 289.957 297.672 293.332 298.578 296.004C299.484 298.677 300.73 300.013 302.315 300.013ZM338.827 285.473V287.511C338.827 296.48 341.431 300.964 346.64 300.964C347.637 300.964 348.633 300.715 349.63 300.217C350.672 299.673 351.442 298.948 351.94 298.042C352.212 297.544 352.302 296.616 352.212 295.257C352.121 293.853 352.325 292.675 352.823 291.724C353.548 290.41 354.658 289.708 356.153 289.617C357.647 289.527 358.825 290.116 359.686 291.384C360.592 292.652 360.614 294.328 359.754 296.412C359.301 297.499 358.553 298.518 357.511 299.469C355.7 301.145 353.888 302.346 352.076 303.07C350.264 303.75 347.773 304.09 344.602 304.09C338.532 304.09 333.935 302.527 330.809 299.401C327.684 296.276 326.121 291.86 326.121 286.152C326.121 280.988 327.593 276.799 330.538 273.583C333.527 270.367 338.034 268.758 344.058 268.758C349.539 268.758 353.639 270.027 356.356 272.563C359.074 275.1 360.592 278.588 360.909 283.027C360.954 283.661 360.931 284.159 360.841 284.522C360.75 284.839 360.478 285.065 360.025 285.201C359.572 285.337 359.187 285.427 358.87 285.473C358.599 285.473 358.01 285.473 357.104 285.473C356.651 285.473 356.311 285.473 356.085 285.473H338.827ZM344.058 271.408C342.247 271.408 340.956 272.541 340.186 274.806C339.416 277.07 339.031 279.675 339.031 282.619H345.893C347.569 282.619 348.407 281.94 348.407 280.581C348.407 277.546 347.977 275.258 347.116 273.718C346.301 272.178 345.281 271.408 344.058 271.408ZM385.072 283.434C385.48 283.706 386.069 284.069 386.839 284.522C388.741 285.699 390.078 286.56 390.848 287.103C391.663 287.647 392.524 288.326 393.43 289.142C394.381 289.957 394.992 290.75 395.264 291.52C395.581 292.29 395.74 293.196 395.74 294.238C395.74 296.955 394.29 299.243 391.391 301.1C388.538 302.912 384.574 303.818 379.501 303.818C372.072 303.818 367.112 301.621 364.621 297.227C363.896 296.276 363.715 295.03 364.078 293.49C364.44 291.95 365.391 290.908 366.931 290.365C368.2 289.912 369.445 289.98 370.668 290.569C371.891 291.112 372.684 291.973 373.046 293.15C373.227 293.785 373.318 294.555 373.318 295.461C373.318 296.321 373.341 296.91 373.386 297.227C373.522 298.178 374.111 299.084 375.153 299.945C376.194 300.76 377.44 301.168 378.889 301.168C380.43 301.168 381.653 300.783 382.558 300.013C383.464 299.198 383.917 298.133 383.917 296.819C383.917 296.231 383.781 295.687 383.51 295.189C383.238 294.691 382.762 294.192 382.083 293.694C381.403 293.15 380.837 292.743 380.384 292.471C379.931 292.154 379.139 291.701 378.006 291.112C376.874 290.478 376.104 290.048 375.696 289.821C372.072 287.738 369.287 285.835 367.339 284.114C365.391 282.393 364.417 280.468 364.417 278.339C364.417 275.621 365.799 273.356 368.562 271.544C371.37 269.732 375.311 268.826 380.384 268.826C387.586 268.826 392.388 271.046 394.788 275.485C395.649 277.252 395.785 278.837 395.196 280.241C394.607 281.645 393.543 282.461 392.003 282.687C390.689 282.868 389.579 282.642 388.673 282.008C387.767 281.328 387.111 280.468 386.703 279.426C386.477 278.882 386.363 278.225 386.363 277.455C386.409 276.685 386.409 276.029 386.363 275.485C386.227 274.443 385.684 273.515 384.733 272.699C383.781 271.839 382.536 271.408 380.996 271.408C379.682 271.408 378.595 271.793 377.734 272.563C376.919 273.288 376.511 274.194 376.511 275.281C376.511 276.323 376.806 277.274 377.395 278.135C377.984 278.95 378.55 279.562 379.093 279.969C379.682 280.377 380.701 280.988 382.151 281.804C383.6 282.574 384.574 283.117 385.072 283.434Z" fill="#111114"></path><path d="M169.596 331.362H171.167L176.265 343.162H174.566L173.203 340.004H167.559L166.213 343.162H164.481L169.596 331.362ZM170.381 333.43L168.137 338.625H172.626L170.381 333.43ZM181.144 331.362H185.681C186.141 331.362 186.68 331.464 187.3 331.667C187.931 331.87 188.53 332.201 189.096 332.661C189.652 333.131 190.127 333.74 190.523 334.488C190.918 335.237 191.116 336.161 191.116 337.262C191.116 338.374 190.924 339.304 190.539 340.052C190.165 340.8 189.7 341.409 189.144 341.88C188.588 342.339 187.995 342.67 187.364 342.874C186.734 343.066 186.173 343.162 185.681 343.162H181.144V331.362ZM182.811 332.709V341.799H184.911C185.606 341.799 186.231 341.692 186.787 341.479C187.354 341.254 187.835 340.939 188.23 340.533C188.626 340.137 188.93 339.662 189.144 339.106C189.358 338.55 189.465 337.941 189.465 337.278C189.465 336.626 189.353 336.022 189.128 335.466C188.914 334.911 188.61 334.43 188.214 334.023C187.819 333.617 187.338 333.297 186.771 333.061C186.215 332.826 185.595 332.709 184.911 332.709H182.811ZM204.813 331.346H206.545L201.591 343.162H199.987L195.017 331.346H196.781L200.789 340.966L204.813 331.346ZM210.584 337.246C210.584 336.402 210.744 335.605 211.065 334.857C211.396 334.098 211.84 333.436 212.396 332.869C212.962 332.313 213.62 331.87 214.368 331.538C215.127 331.207 215.934 331.041 216.789 331.041C217.633 331.041 218.429 331.207 219.178 331.538C219.936 331.87 220.594 332.313 221.15 332.869C221.716 333.436 222.16 334.098 222.48 334.857C222.812 335.605 222.977 336.402 222.977 337.246C222.977 338.101 222.812 338.908 222.48 339.667C222.16 340.415 221.716 341.073 221.15 341.639C220.594 342.195 219.936 342.638 219.178 342.97C218.429 343.29 217.633 343.451 216.789 343.451C215.934 343.451 215.127 343.29 214.368 342.97C213.62 342.638 212.962 342.195 212.396 341.639C211.84 341.073 211.396 340.415 211.065 339.667C210.744 338.908 210.584 338.101 210.584 337.246ZM216.789 332.548C216.137 332.548 215.522 332.677 214.945 332.933C214.378 333.179 213.881 333.516 213.454 333.943C213.037 334.36 212.706 334.857 212.46 335.434C212.214 336.001 212.091 336.605 212.091 337.246C212.091 337.898 212.214 338.513 212.46 339.09C212.706 339.656 213.037 340.148 213.454 340.565C213.881 340.992 214.378 341.329 214.945 341.575C215.522 341.81 216.137 341.928 216.789 341.928C217.43 341.928 218.034 341.81 218.6 341.575C219.167 341.329 219.664 340.992 220.091 340.565C220.519 340.148 220.856 339.656 221.102 339.09C221.347 338.513 221.47 337.898 221.47 337.246C221.47 336.605 221.347 336.001 221.102 335.434C220.856 334.857 220.519 334.36 220.091 333.943C219.664 333.516 219.167 333.179 218.6 332.933C218.034 332.677 217.43 332.548 216.789 332.548ZM240.791 335.434H239.203C239.054 335.114 238.851 334.782 238.594 334.44C238.348 334.098 238.044 333.788 237.68 333.51C237.317 333.233 236.9 333.003 236.43 332.821C235.959 332.639 235.436 332.548 234.859 332.548C234.228 332.548 233.629 332.671 233.063 332.917C232.496 333.152 231.999 333.478 231.572 333.895C231.134 334.312 230.786 334.809 230.53 335.386C230.284 335.953 230.161 336.567 230.161 337.23C230.161 337.914 230.289 338.545 230.546 339.122C230.802 339.688 231.15 340.18 231.588 340.597C232.026 341.014 232.528 341.34 233.095 341.575C233.661 341.81 234.249 341.928 234.859 341.928C235.521 341.928 236.114 341.815 236.638 341.591C237.162 341.366 237.611 341.083 237.985 340.741C238.37 340.399 238.68 340.025 238.915 339.619C239.15 339.213 239.31 338.828 239.396 338.465H234.249V337.086H241.047C241.047 338.048 240.876 338.924 240.534 339.715C240.192 340.495 239.732 341.163 239.155 341.719C238.589 342.275 237.931 342.703 237.183 343.002C236.435 343.301 235.66 343.451 234.859 343.451C234.003 343.451 233.196 343.29 232.438 342.97C231.689 342.638 231.032 342.195 230.466 341.639C229.91 341.073 229.466 340.415 229.135 339.667C228.814 338.908 228.654 338.096 228.654 337.23C228.654 336.386 228.814 335.589 229.135 334.841C229.466 334.082 229.91 333.42 230.466 332.853C231.032 332.297 231.689 331.854 232.438 331.522C233.196 331.191 234.003 331.025 234.859 331.025C235.553 331.025 236.216 331.138 236.847 331.362C237.477 331.576 238.049 331.88 238.562 332.276C239.086 332.671 239.535 333.136 239.909 333.671C240.294 334.205 240.588 334.793 240.791 335.434ZM250.086 331.362H251.658L256.756 343.162H255.057L253.694 340.004H248.05L246.703 343.162H244.972L250.086 331.362ZM250.872 333.43L248.627 338.625H253.117L250.872 333.43ZM261.634 331.362H266.172C266.631 331.362 267.171 331.464 267.791 331.667C268.422 331.87 269.02 332.201 269.587 332.661C270.143 333.131 270.618 333.74 271.014 334.488C271.409 335.237 271.607 336.161 271.607 337.262C271.607 338.374 271.414 339.304 271.03 340.052C270.656 340.8 270.191 341.409 269.635 341.88C269.079 342.339 268.486 342.67 267.855 342.874C267.225 343.066 266.663 343.162 266.172 343.162H261.634V331.362ZM263.302 332.709V341.799H265.402C266.097 341.799 266.722 341.692 267.278 341.479C267.845 341.254 268.326 340.939 268.721 340.533C269.116 340.137 269.421 339.662 269.635 339.106C269.849 338.55 269.956 337.941 269.956 337.278C269.956 336.626 269.843 336.022 269.619 335.466C269.405 334.911 269.1 334.43 268.705 334.023C268.309 333.617 267.828 333.297 267.262 333.061C266.706 332.826 266.086 332.709 265.402 332.709H263.302ZM280.482 331.362H282.053L287.152 343.162H285.452L284.09 340.004H278.446L277.099 343.162H275.368L280.482 331.362ZM281.268 333.43L279.023 338.625H283.512L281.268 333.43Z" fill="#111114"></path></svg>