<?xml version="1.0" encoding="UTF-8"?> <svg xmlns="http://www.w3.org/2000/svg" id="a" viewBox="0 0 500 122.19"><defs><style>.c{fill:#fff;}.d{fill:#aa232a;}.e{fill:#e0d336;}</style></defs><g><path class="c" d="m256.12,83.27h-3.21l-8.16,23.74-3.22.47v1.84h2.42,0s2.08,0,2.08,0h0s4.2,0,4.2,0v-1.84l-3.42-.5,1.88-5.66h8.5l1.89,5.77-3.44.43h0v1.79h4.17s5.19,0,5.19,0h0s1.96,0,1.96,0v-1.79l-2.68-.32-8.17-23.94Zm-6.74,16.01l3.61-10.85,3.55,10.85h-7.16Z"></path><path class="c" d="m280.28,83.39h-3.04s0,0,0,0h-2.65s-5.89,0-5.89,0v1.84l3.29.36c.06,3.31.07,6.63.07,9.92v1.4c0,3.59,0,6.96-.06,10.22l-3.29.36v1.84h5.89s0,0,0,0h0s4.95,0,4.95,0c8.07,0,13.71-4.68,13.71-12.98s-5.09-12.95-12.97-12.95Zm-.85,23.9h-2.24c-.07-3.37-.07-6.79-.07-10.4v-1.39c0-3.41,0-6.78.07-10.09h2.45c5.08,0,8.14,3.82,8.14,10.95s-3.06,10.93-8.35,10.93Z"></path><polygon class="c" points="310.22 85.28 313.49 85.71 307.6 103.14 301.61 85.65 305.15 85.28 305.15 83.39 300.84 83.39 300.84 83.39 295.41 83.39 295.41 83.39 293.55 83.39 293.55 85.23 296.18 85.52 304.94 109.5 307.65 109.5 315.82 85.69 318.97 85.23 318.97 83.39 310.22 83.39 310.22 85.28"></polygon><path class="c" d="m331.2,82.73c-6.22,0-12.19,4.83-12.19,13.62s5.93,13.62,12.19,13.62,12.17-4.83,12.17-13.62-5.94-13.62-12.17-13.62Zm0,25.13c-4.71,0-6.65-5.33-6.65-11.51s1.94-11.52,6.65-11.52,6.63,5.36,6.63,11.52-1.92,11.51-6.63,11.51Z"></path><path class="c" d="m365.08,106.96c-1.34.63-2.7.92-4.02.92-4.77,0-8.45-3.72-8.45-11.51s3.96-11.55,8.68-11.55c1.12,0,2.25.26,3.44.89l.93,4.8h2.69l-.16-5.87c-2.49-1.4-5.06-1.91-7.6-1.91-7.48,0-13.52,5.07-13.52,13.62s5.69,13.62,13.4,13.62c3.05,0,5.78-.69,8.05-1.93l.16-5.84h-2.69l-.92,4.75Z"></path><path class="c" d="m384.68,83.27h-3.21l-8.16,23.74-3.22.48v1.84h2.42,0s2.08,0,2.08,0h0s4.2,0,4.2,0v-1.84l-3.42-.5,1.88-5.66h8.5l1.89,5.77-3.44.43h0v1.79h4.17s5.19,0,5.19,0h0s1.96,0,1.96,0v-1.79l-2.68-.32-8.17-23.94Zm-6.74,16.01l3.61-10.85,3.55,10.85h-7.16Z"></path><path class="c" d="m414.29,106.96c-1.34.63-2.7.92-4.02.92-4.77,0-8.45-3.72-8.45-11.51s3.96-11.55,8.68-11.55c1.12,0,2.25.26,3.44.89l.93,4.8h2.69l-.16-5.87c-2.49-1.4-5.06-1.91-7.6-1.91-7.48,0-13.52,5.07-13.52,13.62s5.69,13.62,13.4,13.62c3.05,0,5.78-.69,8.05-1.93l.16-5.84h-2.69l-.92,4.75Z"></path><path class="c" d="m429.14,97.19v-1.68c0-3.35,0-6.67.07-9.93l3.3-.36v-1.84h-11.79v1.84l3.29.36c.06,3.31.07,6.63.07,9.92h0v1.7c0,3.35,0,6.67-.07,9.92l-3.29.36v1.84h11.79v-1.84l-3.3-.36c-.06-3.31-.07-6.63-.07-9.94Z"></path><path class="c" d="m459.72,107.53l-2.68-.32-8.17-23.94h-3.21l-8.16,23.74-3.22.47v1.84h2.42,0s2.08,0,2.08,0h0s4.2,0,4.2,0v-1.84l-3.42-.5,1.88-5.66h8.5l1.89,5.77-3.44.43h0v1.79h4.17s5.19,0,5.19,0h0s1.96,0,1.96,0v-1.79Zm-17.59-8.25l3.61-10.85,3.55,10.85h-7.16Z"></path></g><g><path class="c" d="m229.6,38.67c-.72-4.39-2.23-6.79-7.5-7.49,6.25-1.01,8.35-4.26,8.35-7.43,0-4.87-4.09-7.78-11.47-7.78h-15.26v2.52l3.54.37c.07,3.88.07,7.78.07,11.66v1.74c0,3.93,0,7.83-.07,11.66l-3.54.37v2.52h15.1v-2.52l-3.67-.38c-.07-3.71-.07-7.45-.07-11.27h1.7c2.81,0,3.97,1.43,4.43,4.59l.87,5.45c.46,3.65,2.81,4.8,6.8,4.8,2.15,0,2.91-.15,5.14-.67v-2.52l-3.52-.38-.9-5.21Zm-14.53-8.67c0-3.9,0-7.64.08-11.33h1.93c3.83,0,5.87,1.82,5.87,5.59,0,3.02-1.42,5.74-6.08,5.74h-1.79Z"></path><path class="c" d="m250.65,44.82h-6.61c-.06-2.93-.06-5.9-.06-8.93h3.84l.41,2.73h2.04v-7.58h-2.04l-.43,2.77h-3.82c0-2.75,0-5.48.06-8.16h5.91l.7,4.07h2.94l-.25-6.06h-12.31s-5.66,0-5.66,0v1.89l2.65.27c.05,2.91.06,5.84.06,8.74v1.3c0,2.95,0,5.87-.06,8.74l-2.65.27v1.89h2.6s6.12,0,6.12,0h0s9.95,0,9.95,0l.25-6.06h-2.93l-.7,4.1Z"></path><path class="c" d="m264.92,35.85v-1.28c0-2.95,0-5.88.06-8.75l2.68-.27v-1.89h-11.35v1.89l2.65.27c.05,2.91.06,5.84.06,8.74v1.3c0,2.95,0,5.87-.06,8.74l-2.65.27v1.89h11.35v-1.89l-2.68-.27c-.05-2.91-.06-5.84-.06-8.77Z"></path><path class="c" d="m280.47,32.83l-1.65-.76c-2.09-.93-3.2-1.91-3.2-3.77s1.62-3.2,3.63-3.2c.86,0,1.62.17,2.37.48l.67,4.14h3.23l.29-4.93c-1.72-1.13-4.14-1.79-6.65-1.79-5.33,0-8.74,2.57-8.74,6.79,0,3.89,2.39,5.98,6.53,7.87l1.49.68c2.12.94,3.04,1.78,3.04,3.64s-1.35,3.35-3.86,3.35c-1.32,0-2.37-.21-3.45-.63l-.7-4.35h-3.28l-.21,5.23c2.03,1.25,5,1.84,7.64,1.84,6.01,0,9.19-2.94,9.19-7.09,0-3.56-1.84-5.5-6.34-7.52Z"></path><path class="c" d="m383.7,32.24v-1.74c0-3.89,0-7.8.07-11.66l3.37-.36v-2.52h-11.84l-7.21,20.66-7.64-20.66h-12.37v2.52l4.12.48v24.71l-4.53.58v2.52h11.44v-2.52l-3.88-.59v-11.46l-.21-9.41,8.93,23.98h3.62l8.37-23.85-.1,10.29c-.03,3.09-.01,6.82-.08,10.64l-3.43.4h0v2.52h14.97v-2.52l-3.54-.37c-.07-3.84-.07-7.74-.07-11.66Z"></path><path class="c" d="m401.19,23.01c-5.77,0-11.17,4.1-11.17,12.21s5.36,12.21,11.17,12.21,11.16-4.1,11.16-12.21-5.39-12.21-11.16-12.21Zm0,22.39c-3.54,0-4.94-4.34-4.94-10.17s1.4-10.2,4.94-10.2,4.93,4.39,4.93,10.2-1.39,10.17-4.93,10.17Z"></path><path class="c" d="m433.6,40.7c-.54-3.29-1.67-5.09-5.62-5.62,4.69-.76,6.26-3.19,6.26-5.57,0-3.65-3.07-5.84-8.6-5.84h-5.78s-5.66,0-5.66,0v1.89l2.65.27c.05,2.91.06,5.84.06,8.74v1.3c0,2.95,0,5.87-.06,8.74l-2.65.27v1.89h2.6s6.02,0,6.02,0h0s2.7,0,2.7,0v-1.89l-2.75-.28c-.05-2.78-.06-5.59-.06-8.45h1.27c2.11,0,2.98,1.08,3.33,3.44l.66,4.09c.35,2.74,2.11,3.6,5.1,3.6,1.61,0,2.18-.11,3.85-.5v-1.89l-2.64-.29-.67-3.91Zm-10.89-6.5c0-2.93,0-5.73.06-8.5h1.44c2.87,0,4.4,1.37,4.4,4.19,0,2.26-1.07,4.31-4.56,4.31h-1.34Z"></path><path class="c" d="m451.36,23.62h-3.63l-7.17,20.86-2.83.41h0v1.89h7.58v-1.89l-2.71-.43,1.43-4.4h7.09l1.44,4.54-2.71.36v1.81h10.84v-1.81l-2.13-.25-7.21-21.1Zm-6.66,14.4l2.92-8.97,2.85,8.97h-5.77Z"></path><path class="c" d="m477.49,44.82h-6.61c-.06-2.93-.06-5.9-.06-8.93h3.84l.41,2.73h2.04v-7.58h-2.04l-.43,2.77h-3.82c0-2.75,0-5.48.06-8.16h5.91l.7,4.07h2.94l-.25-6.06h-12.31s-5.66,0-5.66,0v1.89l2.65.27c.05,2.91.06,5.84.06,8.74v1.3c0,2.95,0,5.87-.06,8.74l-2.65.27v1.89h2.6s6.12,0,6.12,0h0s9.95,0,9.95,0l.25-6.06h-2.93l-.7,4.1Z"></path><path class="c" d="m493.66,32.83l-1.65-.76c-2.09-.93-3.2-1.91-3.2-3.77s1.62-3.2,3.63-3.2c.86,0,1.62.17,2.37.48l.67,4.14h3.23l.29-4.93c-1.72-1.13-4.14-1.79-6.65-1.79-5.33,0-8.74,2.57-8.74,6.79,0,3.89,2.39,5.98,6.53,7.87l1.49.68c2.12.94,3.04,1.78,3.04,3.64s-1.35,3.35-3.86,3.35c-1.32,0-2.37-.21-3.45-.63l-.7-4.35h-3.28l-.21,5.23c2.03,1.25,5,1.84,7.64,1.84,6.01,0,9.19-2.94,9.19-7.09,0-3.56-1.84-5.5-6.34-7.52Z"></path><path class="c" d="m327.04,38.64l6.39,1.03c-1.31,5.94-3.14,10.62-5.95,15.37-2.68-2.85-5.32-5.68-8.55-9.21-2.8-3.06-4.78-5.23-6.34-6.98,8.41-4.12,12.16-8.07,12.16-13.65,0-6.28-4.74-10.57-13.33-10.57s-14.41,4.73-14.41,12.33c0,4.2,1.41,8.33,5.3,13.06.13.15.26.3.38.45-8.54,4.02-12.45,9.37-12.45,16.19,0,8.07,6.45,14.72,17.1,14.72,7.86,0,12.91-2.91,16.2-6.49.76.81,1.54,1.62,2.36,2.45,3.2,3.03,6.23,4.05,10.77,4.05,2.28,0,4.02-.28,7.12-1l.51-4.62-8.01-1.37c-2.37-2.53-4.41-4.69-6.34-6.74,3.81-5.54,6.46-10.92,8.47-18.01l5.99-1.01v-3.49h-17.36v3.49Zm-15.73-20.85c3.74,0,6.32,2.65,6.32,6.92s-2.61,7.95-7.08,11.82c-.89-1.05-1.67-1.99-2.46-3.02-2.65-3.59-3.3-6.1-3.3-8.75,0-4.01,2.79-6.96,6.53-6.96Zm-.16,47.56c-7.17,0-11.84-5.18-11.84-11.5,0-3.79,1.32-7.84,5.4-10.98,2.21,2.64,4.67,5.65,8.48,10.28,2.48,2.86,5.01,5.88,7.87,9.05-2.61,2.01-6.1,3.15-9.9,3.15Z"></path></g><g id="b"><path class="d" d="m183.9,56.97c.27-.27-30.58-56.21-76.45-56.97C62.59-.73,32.41,51.75,29.5,56.97c-.08.14.59-.67,1.87-2.06,20.15-21.98,39.36-19.67,39.36-19.67,14.9,2.08,23.87,15.58,26.37,19.36,3.85,5.8,5.68,11.37,6.61,15.12,2.34,0,4.68,0,7.01.01.27-3.73,1.24-9.98,4.98-16.5,6.57-11.44,18.93-18.79,29.98-19.49,21.39-1.34,38.04,23.43,38.23,23.24Z"></path><path class="d" d="m103.7,77.21h7.5c.84,5.31,3.17,15.33,10.49,25.48,8.46,11.73,19,17.26,23.99,19.49h-76.45c4.45-1.59,16.59-6.59,25.48-19.49,7.14-10.36,8.61-20.65,8.99-25.48Z"></path><path class="e" d="m75.21,77.21c-7.14,15.12-22.53,24.58-38.98,23.99-15.41-.56-29.33-9.85-35.98-23.99-2.68,23.35,15.84,43.47,37.48,43.47s40.15-20.12,37.48-43.47Z"></path><path class="e" d="m217.63,77.21c-7.14,15.12-22.53,24.58-38.98,23.99-15.41-.56-29.33-9.85-35.98-23.99-2.68,23.35,15.84,43.47,37.48,43.47s40.15-20.12,37.48-43.47Z"></path></g></svg> 