<svg xmlns="http://www.w3.org/2000/svg" xmlns:xlink="http://www.w3.org/1999/xlink" xmlns:xodm="http://www.corel.com/coreldraw/odm/2003" xml:space="preserve" width="17.52mm" height="3.154mm" style="shape-rendering:geometricPrecision; text-rendering:geometricPrecision; image-rendering:optimizeQuality; fill-rule:evenodd; clip-rule:evenodd" viewBox="0 0 80.22 14.44"> <defs>  <style type="text/css">   <![CDATA[    .fil0 {fill:white;fill-rule:nonzero}    .fil4 {fill:url(#id0)}    .fil2 {fill:url(#id1)}    .fil1 {fill:url(#id2)}    .fil3 {fill:url(#id3)}   ]]>  </style>  <radialGradient id="id0" gradientUnits="userSpaceOnUse" gradientTransform="matrix(-0.278253 1.02903 -1.79375 0.115548 31 -1)" cx="9.72" cy="10.09" r="55.73" fx="9.72" fy="10.09">   <stop offset="0" style="stop-opacity:1; stop-color:#F9D996"></stop>   <stop offset="1" style="stop-opacity:1; stop-color:#94693E"></stop>  </radialGradient>  <radialGradient id="id1" gradientUnits="userSpaceOnUse" gradientTransform="matrix(-0.25484 0.693908 -1.43627 0.198636 28 1)" xlink:href="#id0" cx="10.34" cy="10.28" r="78.91" fx="10.34" fy="10.28">  </radialGradient>  <radialGradient id="id2" gradientUnits="userSpaceOnUse" gradientTransform="matrix(-0.131237 0.840014 -1.17207 0.103551 16 1)" xlink:href="#id0" cx="6.78" cy="7.22" r="74.18" fx="6.78" fy="7.22">  </radialGradient>  <radialGradient id="id3" gradientUnits="userSpaceOnUse" gradientTransform="matrix(-0.119561 0.902733 -1.06779 0.111283 13 2)" xlink:href="#id0" cx="4.89" cy="7.22" r="81.69" fx="4.89" fy="7.22">  </radialGradient> </defs> <g id="Camada_x0020_1">  <metadata id="CorelCorpID_0Corel-Layer"></metadata>  <g id="_2043020316160">   <path class="fil0" d="M17.81 0.61l0.95 0c0.07,0 0.14,0 0.21,0 0.07,0 0.13,0 0.2,0 0.1,0 0.2,0.01 0.29,0.02 0.09,0.01 0.17,0.04 0.25,0.09 0.08,0.05 0.15,0.12 0.22,0.21 0.07,0.09 0.13,0.21 0.18,0.37 0.15,0.37 0.27,0.69 0.38,0.94 0.1,0.26 0.2,0.49 0.28,0.68 0.08,0.2 0.16,0.37 0.23,0.53 0.07,0.16 0.14,0.32 0.21,0.48 0.07,0.16 0.16,0.34 0.24,0.53 0.09,0.19 0.19,0.42 0.31,0.69 0.12,0.27 0.26,0.59 0.42,0.96 0.16,0.37 0.35,0.82 0.57,1.33 0.17,-0.4 0.33,-0.75 0.45,-1.04 0.12,-0.29 0.23,-0.54 0.32,-0.74 0.09,-0.21 0.17,-0.39 0.23,-0.53 0.06,-0.15 0.12,-0.28 0.17,-0.4 0.05,-0.12 0.1,-0.23 0.14,-0.34 0.05,-0.11 0.1,-0.23 0.16,-0.37 0.06,-0.14 0.12,-0.3 0.2,-0.48 0.08,-0.18 0.17,-0.41 0.28,-0.67 0.11,-0.26 0.24,-0.58 0.4,-0.95 0.15,-0.37 0.34,-0.8 0.55,-1.3l0.62 0.01 -3.75 8.77 -0.24 0 -2.98 -7.16c-0.1,-0.25 -0.2,-0.46 -0.3,-0.63 -0.1,-0.18 -0.2,-0.32 -0.31,-0.43 -0.11,-0.11 -0.24,-0.2 -0.37,-0.25 -0.14,-0.05 -0.31,-0.08 -0.5,-0.08l0 -0.23z"></path>   <path id="_1" class="fil0" d="M29.79 0.99l0 3.41 3.44 0 0 0.47 -3.44 0 0 2.86c0,0.19 0,0.34 0.01,0.45 0.01,0.11 0.02,0.19 0.04,0.25 0.02,0.06 0.04,0.1 0.07,0.12 0.03,0.03 0.07,0.05 0.11,0.08 0.03,0.01 0.09,0.02 0.17,0.04 0.08,0.01 0.19,0.02 0.3,0.02l1.45 0c0.25,0 0.45,-0 0.61,-0.02 0.16,-0.01 0.3,-0.04 0.42,-0.07 0.12,-0.03 0.23,-0.09 0.32,-0.15 0.09,-0.07 0.2,-0.16 0.31,-0.26 0.14,-0.14 0.27,-0.3 0.4,-0.49 0.13,-0.19 0.26,-0.42 0.4,-0.69l0.27 0 -0.74 2.16 -5.38 0 0 -7.14c0,-0.28 -0.01,-0.51 -0.03,-0.67 -0.02,-0.16 -0.06,-0.28 -0.12,-0.34 -0.15,-0.18 -0.41,-0.28 -0.77,-0.28l-0.3 0 0 -0.23 6.6 0 0 1.89 -0.15 0c-0.06,-0.31 -0.13,-0.55 -0.19,-0.74 -0.07,-0.19 -0.16,-0.33 -0.28,-0.43 -0.12,-0.1 -0.27,-0.17 -0.46,-0.2 -0.19,-0.03 -0.43,-0.05 -0.74,-0.05l-2.34 0z"></path>   <path id="_2" class="fil0" d="M34.97 0.56l1.2 0c0.21,0 0.39,0.01 0.55,0.03 0.16,0.02 0.31,0.06 0.44,0.12 0.13,0.06 0.26,0.14 0.39,0.24 0.12,0.1 0.25,0.23 0.39,0.39l4.6 5.68 0 -6.5 0.55 0 0 8.82 -0.24 0 -5.66 -6.97 0 6.82 -0.55 0 0 -6.79c0,-0.53 -0.14,-0.93 -0.43,-1.2 -0.29,-0.27 -0.7,-0.4 -1.23,-0.4l0 -0.24z"></path>   <path id="_3" class="fil0" d="M51.95 2.51c-0.02,-0.21 -0.05,-0.4 -0.09,-0.54 -0.04,-0.15 -0.1,-0.27 -0.17,-0.37 -0.07,-0.1 -0.14,-0.18 -0.21,-0.24 -0.08,-0.06 -0.16,-0.12 -0.24,-0.16 -0.21,-0.12 -0.5,-0.17 -0.85,-0.17l-1.21 0 0 8.17 -1.23 0 0 -8.17 -1.03 0c-0.23,0 -0.41,0.01 -0.56,0.03 -0.15,0.02 -0.28,0.05 -0.38,0.09 -0.11,0.04 -0.2,0.1 -0.27,0.17 -0.07,0.07 -0.14,0.16 -0.2,0.28 -0.08,0.11 -0.14,0.25 -0.2,0.39 -0.05,0.15 -0.09,0.33 -0.1,0.54l-0.24 0c0,-0.07 0.01,-0.14 0.01,-0.2 0,-0.07 0,-0.13 0,-0.19 0,-0.15 -0,-0.29 -0.01,-0.42 -0.01,-0.13 -0.01,-0.25 -0.01,-0.36 0,-0.14 0.01,-0.27 0.03,-0.38 0.02,-0.11 0.07,-0.2 0.15,-0.27 0.08,-0.07 0.19,-0.12 0.34,-0.16 0.15,-0.04 0.35,-0.05 0.59,-0.05l5.11 0c0.22,0 0.4,0.02 0.53,0.05 0.14,0.04 0.24,0.09 0.31,0.16 0.07,0.07 0.12,0.16 0.15,0.26 0.03,0.1 0.04,0.22 0.04,0.35 0,0.14 -0,0.29 -0.02,0.45 -0.01,0.17 -0.02,0.35 -0.02,0.54 0,0.03 0,0.07 0,0.1 0,0.04 0,0.07 0.01,0.11l-0.26 0z"></path>   <path id="_4" class="fil0" d="M60.62 0.5l0 5.1c0,0.44 -0.02,0.82 -0.06,1.15 -0.04,0.33 -0.1,0.61 -0.18,0.85 -0.09,0.24 -0.21,0.47 -0.38,0.68 -0.17,0.21 -0.38,0.4 -0.64,0.56 -0.26,0.18 -0.56,0.31 -0.9,0.39 -0.34,0.08 -0.73,0.12 -1.17,0.12 -0.93,0 -1.65,-0.16 -2.16,-0.48 -0.24,-0.17 -0.45,-0.36 -0.63,-0.58 -0.17,-0.22 -0.31,-0.47 -0.4,-0.74 -0.07,-0.2 -0.12,-0.47 -0.16,-0.83 -0.03,-0.35 -0.05,-0.79 -0.05,-1.3l0 -3.39c0,-0.55 -0.08,-0.9 -0.24,-1.06 -0.06,-0.09 -0.15,-0.15 -0.27,-0.18 -0.12,-0.03 -0.26,-0.05 -0.43,-0.05l-0.33 0 0 -0.24 2.12 0c0.11,0 0.19,0.02 0.25,0.06 0.05,0.04 0.09,0.12 0.1,0.23 0.02,0.11 0.02,0.27 0.02,0.47 -0,0.2 -0.01,0.46 -0.01,0.77l0 3.78c0,0.16 0.01,0.34 0.02,0.53 0.01,0.19 0.03,0.39 0.06,0.6 0.03,0.23 0.08,0.43 0.14,0.59 0.05,0.17 0.12,0.31 0.2,0.43 0.07,0.12 0.17,0.23 0.29,0.33 0.12,0.1 0.25,0.19 0.4,0.26 0.15,0.08 0.32,0.14 0.51,0.18 0.19,0.05 0.4,0.07 0.62,0.07 0.29,0 0.56,-0.03 0.8,-0.09 0.24,-0.06 0.48,-0.15 0.71,-0.27 0.23,-0.14 0.42,-0.28 0.57,-0.44 0.15,-0.15 0.27,-0.33 0.37,-0.52 0.07,-0.2 0.13,-0.46 0.17,-0.78 0.04,-0.33 0.06,-0.72 0.06,-1.17l0 -5.05 0.58 0z"></path>   <path id="_5" class="fil0" d="M70.86 9.19l-1.75 0c-0.12,0 -0.23,-0 -0.3,-0.02 -0.08,-0.01 -0.15,-0.04 -0.21,-0.07 -0.07,-0.04 -0.13,-0.1 -0.19,-0.18 -0.07,-0.08 -0.15,-0.19 -0.24,-0.32l-2.5 -3.49c-0.1,0 -0.19,0.01 -0.26,0.02 -0.07,0.01 -0.14,0.01 -0.21,0.01 -0.07,0 -0.13,0 -0.2,-0 -0.07,-0 -0.15,-0.01 -0.24,-0.03l0 4.08 -1.19 0 0 -7.16c0,-0.28 -0.01,-0.5 -0.04,-0.67 -0.03,-0.16 -0.07,-0.28 -0.13,-0.35 -0.18,-0.18 -0.42,-0.27 -0.74,-0.27l-0.33 0 0 -0.26 3.11 0c0.47,0 0.88,0.02 1.22,0.06 0.33,0.04 0.61,0.09 0.82,0.15 0.21,0.07 0.41,0.17 0.6,0.29 0.19,0.12 0.35,0.27 0.49,0.45 0.14,0.17 0.25,0.37 0.34,0.59 0.08,0.22 0.12,0.46 0.12,0.73 0,0.27 -0.04,0.53 -0.13,0.77 -0.09,0.24 -0.22,0.45 -0.39,0.64 -0.17,0.19 -0.4,0.35 -0.66,0.49 -0.26,0.14 -0.58,0.24 -0.93,0.31l1.8 2.49c0.19,0.3 0.37,0.55 0.53,0.73 0.16,0.18 0.33,0.33 0.49,0.44 0.17,0.11 0.34,0.19 0.53,0.24 0.18,0.05 0.39,0.09 0.62,0.12l0 0.23zm-6.12 -4.49c0.43,0.05 0.82,0.04 1.17,-0.04 0.35,-0.08 0.65,-0.21 0.91,-0.39 0.25,-0.18 0.44,-0.39 0.58,-0.64 0.14,-0.25 0.21,-0.52 0.21,-0.8 0,-0.26 -0.04,-0.5 -0.13,-0.73 -0.09,-0.22 -0.21,-0.42 -0.37,-0.59 -0.16,-0.17 -0.36,-0.3 -0.59,-0.39 -0.23,-0.1 -0.49,-0.14 -0.77,-0.14 -0.12,0 -0.26,0.01 -0.43,0.04 -0.17,0.02 -0.36,0.05 -0.57,0.08l0 3.61z"></path>   <path id="_6" class="fil0" d="M80.1 9.19c-0.06,0 -0.13,0 -0.22,0.01 -0.09,0.01 -0.18,0.01 -0.28,0.01 -0.17,0 -0.35,-0.02 -0.55,-0.05 -0.2,-0.03 -0.4,-0.11 -0.61,-0.23 -0.21,-0.12 -0.4,-0.28 -0.6,-0.5 -0.2,-0.22 -0.37,-0.51 -0.52,-0.88l-2.17 -5.2 -1.23 2.8c0.09,-0.08 0.22,-0.14 0.39,-0.17 0.16,-0.04 0.34,-0.05 0.54,-0.05 0.23,0 0.45,0.02 0.67,0.07 0.22,0.05 0.4,0.11 0.53,0.19 -0.26,0.01 -0.51,0.05 -0.74,0.12 -0.23,0.07 -0.45,0.16 -0.65,0.26 -0.2,0.11 -0.38,0.23 -0.55,0.37 -0.17,0.14 -0.32,0.28 -0.46,0.43 -0.13,0.15 -0.25,0.3 -0.35,0.44 -0.1,0.15 -0.18,0.29 -0.25,0.41l-0.84 1.97 -0.59 0.01 3.76 -8.84 0.24 0 2.98 7.19c0.11,0.25 0.21,0.46 0.3,0.63 0.09,0.17 0.2,0.31 0.3,0.42 0.11,0.11 0.23,0.19 0.37,0.25 0.14,0.05 0.31,0.09 0.52,0.11l0 0.24z"></path>   <path class="fil0" d="M22.47 14.07l0.36 0 -1.08 -2.39 -0.34 0 -1.08 2.39 0.35 0 0.26 -0.6 1.27 0 0.26 0.6zm-1.41 -0.87l0.52 -1.17 0.52 1.17 -1.03 0z"></path>   <path id="_1_0" class="fil0" d="M23.78 14.07l1.01 0c0.77,0 1.29,-0.48 1.29,-1.19 0,-0.71 -0.52,-1.19 -1.29,-1.19l-1.01 0 0 2.39zm0.34 -0.3l0 -1.79 0.64 0c0.59,0 0.97,0.36 0.97,0.9 0,0.54 -0.38,0.9 -0.97,0.9l-0.64 0z"></path>   <polygon id="_2_1" class="fil0" points="28.85,11.68 27.98,13.65 27.12,11.68 26.76,11.68 27.81,14.07 28.14,14.07 29.19,11.68 "></polygon>   <path id="_3_2" class="fil0" d="M31.14 14.1c0.73,0 1.27,-0.52 1.27,-1.22 0,-0.7 -0.54,-1.22 -1.27,-1.22 -0.73,0 -1.27,0.52 -1.27,1.22 0,0.7 0.54,1.22 1.27,1.22zm0 -0.3c-0.54,0 -0.93,-0.39 -0.93,-0.92 0,-0.53 0.4,-0.92 0.93,-0.92 0.53,0 0.92,0.39 0.92,0.92 0,0.53 -0.4,0.92 -0.92,0.92z"></path>   <path id="_4_3" class="fil0" d="M35.18 13.64c-0.17,0.11 -0.36,0.15 -0.56,0.15 -0.55,0 -0.95,-0.39 -0.95,-0.92 0,-0.53 0.4,-0.92 0.95,-0.92 0.27,0 0.49,0.09 0.69,0.28l0.21 -0.21c-0.22,-0.24 -0.54,-0.37 -0.92,-0.37 -0.74,0 -1.28,0.52 -1.28,1.22 0,0.71 0.54,1.22 1.27,1.22 0.33,0 0.67,-0.1 0.9,-0.3l0 -0.93 -0.33 0 0 0.78z"></path>   <path id="_5_4" class="fil0" d="M38.54 14.07l0.36 0 -1.08 -2.39 -0.34 0 -1.08 2.39 0.35 0 0.26 -0.6 1.27 0 0.26 0.6zm-1.41 -0.87l0.52 -1.17 0.52 1.17 -1.03 0z"></path>   <path id="_6_5" class="fil0" d="M39.84 14.07l1.01 0c0.77,0 1.29,-0.48 1.29,-1.19 0,-0.71 -0.52,-1.19 -1.29,-1.19l-1.01 0 0 2.39zm0.34 -0.3l0 -1.79 0.64 0c0.59,0 0.97,0.36 0.97,0.9 0,0.54 -0.38,0.9 -0.97,0.9l-0.64 0z"></path>   <path id="_7" class="fil0" d="M44.33 14.1c0.73,0 1.27,-0.52 1.27,-1.22 0,-0.7 -0.54,-1.22 -1.27,-1.22 -0.73,0 -1.27,0.52 -1.27,1.22 0,0.7 0.54,1.22 1.27,1.22zm0 -0.3c-0.54,0 -0.93,-0.39 -0.93,-0.92 0,-0.53 0.4,-0.92 0.93,-0.92 0.53,0 0.92,0.39 0.92,0.92 0,0.53 -0.4,0.92 -0.92,0.92z"></path>   <path id="_8" class="fil0" d="M47.41 14.1c0.63,0 0.92,-0.31 0.92,-0.68 0,-0.88 -1.45,-0.51 -1.45,-1.09 0,-0.21 0.17,-0.38 0.58,-0.38 0.21,0 0.45,0.06 0.66,0.19l0.11 -0.27c-0.2,-0.14 -0.49,-0.21 -0.77,-0.21 -0.63,0 -0.91,0.31 -0.91,0.68 0,0.89 1.45,0.52 1.45,1.1 0,0.21 -0.18,0.37 -0.59,0.37 -0.31,0 -0.61,-0.12 -0.79,-0.28l-0.13 0.27c0.19,0.18 0.55,0.3 0.91,0.3z"></path>   <path id="_9" class="fil0" d="M53.73 14.07l0.36 0 -1.08 -2.39 -0.34 0 -1.08 2.39 0.35 0 0.26 -0.6 1.27 0 0.26 0.6zm-1.41 -0.87l0.52 -1.17 0.52 1.17 -1.03 0z"></path>   <path id="_10" class="fil0" d="M55.74 14.1c0.63,0 0.92,-0.31 0.92,-0.68 0,-0.88 -1.45,-0.51 -1.45,-1.09 0,-0.21 0.17,-0.38 0.58,-0.38 0.21,0 0.45,0.06 0.66,0.19l0.11 -0.27c-0.2,-0.14 -0.49,-0.21 -0.77,-0.21 -0.63,0 -0.91,0.31 -0.91,0.68 0,0.89 1.45,0.52 1.45,1.1 0,0.21 -0.18,0.37 -0.59,0.37 -0.31,0 -0.61,-0.12 -0.79,-0.28l-0.13 0.27c0.19,0.18 0.55,0.3 0.91,0.3z"></path>   <path id="_11" class="fil0" d="M58.45 14.1c0.63,0 0.92,-0.31 0.92,-0.68 0,-0.88 -1.45,-0.51 -1.45,-1.09 0,-0.21 0.17,-0.38 0.58,-0.38 0.21,0 0.45,0.06 0.66,0.19l0.11 -0.27c-0.2,-0.14 -0.49,-0.21 -0.77,-0.21 -0.63,0 -0.91,0.31 -0.91,0.68 0,0.89 1.45,0.52 1.45,1.1 0,0.21 -0.18,0.37 -0.59,0.37 -0.31,0 -0.61,-0.12 -0.79,-0.28l-0.13 0.27c0.19,0.18 0.55,0.3 0.91,0.3z"></path>   <path id="_12" class="fil0" d="M61.54 14.1c0.73,0 1.27,-0.52 1.27,-1.22 0,-0.7 -0.54,-1.22 -1.27,-1.22 -0.73,0 -1.27,0.52 -1.27,1.22 0,0.7 0.54,1.22 1.27,1.22zm0 -0.3c-0.54,0 -0.93,-0.39 -0.93,-0.92 0,-0.53 0.4,-0.92 0.93,-0.92 0.53,0 0.92,0.39 0.92,0.92 0,0.53 -0.4,0.92 -0.92,0.92z"></path>   <path id="_13" class="fil0" d="M64.99 14.1c0.37,0 0.69,-0.13 0.91,-0.38l-0.22 -0.21c-0.18,0.19 -0.41,0.29 -0.67,0.29 -0.54,0 -0.94,-0.39 -0.94,-0.92 0,-0.53 0.4,-0.92 0.94,-0.92 0.26,0 0.49,0.09 0.67,0.28l0.22 -0.21c-0.22,-0.25 -0.54,-0.37 -0.91,-0.37 -0.73,0 -1.27,0.52 -1.27,1.22 0,0.71 0.54,1.22 1.26,1.22z"></path>   <polygon id="_14" class="fil0" points="66.98,14.07 67.32,14.07 67.32,11.68 66.98,11.68 "></polygon>   <path id="_15" class="fil0" d="M70.42 14.07l0.36 0 -1.08 -2.39 -0.34 0 -1.08 2.39 0.35 0 0.26 -0.6 1.27 0 0.26 0.6zm-1.41 -0.87l0.52 -1.17 0.52 1.17 -1.03 0z"></path>   <path id="_16" class="fil0" d="M71.73 14.07l1.01 0c0.77,0 1.29,-0.48 1.29,-1.19 0,-0.71 -0.52,-1.19 -1.29,-1.19l-1.01 0 0 2.39zm0.34 -0.3l0 -1.79 0.64 0c0.59,0 0.97,0.36 0.97,0.9 0,0.54 -0.38,0.9 -0.97,0.9l-0.64 0z"></path>   <path id="_17" class="fil0" d="M76.22 14.1c0.73,0 1.27,-0.52 1.27,-1.22 0,-0.7 -0.54,-1.22 -1.27,-1.22 -0.73,0 -1.27,0.52 -1.27,1.22 0,0.7 0.54,1.22 1.27,1.22zm0 -0.3c-0.54,0 -0.93,-0.39 -0.93,-0.92 0,-0.53 0.4,-0.92 0.93,-0.92 0.53,0 0.92,0.39 0.92,0.92 0,0.53 -0.4,0.92 -0.92,0.92z"></path>   <path id="_18" class="fil0" d="M79.29 14.1c0.63,0 0.92,-0.31 0.92,-0.68 0,-0.88 -1.45,-0.51 -1.45,-1.09 0,-0.21 0.17,-0.38 0.58,-0.38 0.21,0 0.45,0.06 0.66,0.19l0.11 -0.27c-0.2,-0.14 -0.49,-0.21 -0.77,-0.21 -0.63,0 -0.91,0.31 -0.91,0.68 0,0.89 1.45,0.52 1.45,1.1 0,0.21 -0.18,0.37 -0.59,0.37 -0.31,0 -0.61,-0.12 -0.79,-0.28l-0.13 0.27c0.19,0.18 0.55,0.3 0.91,0.3z"></path>   <g>    <g>     <path class="fil1" d="M16.67 14.44l-1.44 0c-0.13,0 -0.26,0 -0.39,0 -0.13,0 -0.25,0 -0.37,0 -0.19,0 -0.37,-0.01 -0.53,-0.03 -0.17,-0.02 -0.33,-0.07 -0.47,-0.15 -0.15,-0.08 -0.28,-0.19 -0.41,-0.34 -0.12,-0.15 -0.24,-0.35 -0.34,-0.6 -0.27,-0.61 -0.5,-1.13 -0.7,-1.55 -0.2,-0.42 -0.37,-0.8 -0.52,-1.12 -0.15,-0.32 -0.29,-0.61 -0.42,-0.87 -0.13,-0.26 -0.26,-0.52 -0.4,-0.79 -0.09,-0.18 -0.19,-0.36 -0.29,-0.56l1.17 -2.37 2.69 5.72c0.19,0.41 0.37,0.76 0.55,1.04 0.18,0.29 0.37,0.53 0.58,0.71 0.21,0.19 0.44,0.32 0.7,0.41 0.22,0.07 0.49,0.11 0.78,0.12l-0.18 0.38zm-6.75 -6.93c-0.08,-0.17 -0.17,-0.34 -0.26,-0.53 -0.22,-0.44 -0.48,-0.97 -0.77,-1.58 -0.3,-0.61 -0.65,-1.34 -1.05,-2.19 -0.33,0.67 -0.61,1.24 -0.83,1.71l-0.06 0.13 -0.56 -1.13 1.89 -3.92 0.44 0 2.4 5.1 -1.19 2.41zm-3.45 -1.52l-0.07 0.15c-0.17,0.34 -0.31,0.63 -0.42,0.87 -0.11,0.24 -0.22,0.46 -0.31,0.65 -0.09,0.2 -0.18,0.39 -0.27,0.56 -0.09,0.18 -0.18,0.38 -0.29,0.61 -0.11,0.22 -0.23,0.49 -0.37,0.79 -0.14,0.3 -0.32,0.67 -0.52,1.11 -0.21,0.43 -0.45,0.96 -0.74,1.56 -0.28,0.59 -0.61,1.29 -1,2.09l-0.28 -0.58c-0.19,-0.4 -0.19,-0.84 0,-1.24l3.73 -7.71 0.56 1.13z"></path>     <path class="fil2" d="M16.67 14.44l-1.44 0c-0.13,0 -0.26,0 -0.39,0 -0.13,0 -0.25,0 -0.37,0 -0.19,0 -0.37,-0.01 -0.53,-0.03 -0.17,-0.02 -0.33,-0.07 -0.47,-0.15 -0.15,-0.08 -0.28,-0.19 -0.41,-0.34 -0.12,-0.15 -0.24,-0.35 -0.34,-0.6 -0.27,-0.61 -0.5,-1.13 -0.7,-1.55 -0.2,-0.42 -0.37,-0.8 -0.52,-1.12 -0.15,-0.32 -0.29,-0.61 -0.42,-0.87 -0.13,-0.26 -0.26,-0.52 -0.4,-0.79 -0.09,-0.18 -0.19,-0.36 -0.29,-0.56l1.17 -2.37 2.69 5.72c0.19,0.41 0.37,0.76 0.55,1.04 0.18,0.29 0.37,0.53 0.58,0.71 0.21,0.19 0.44,0.32 0.7,0.41 0.22,0.07 0.49,0.11 0.78,0.12l-0.18 0.38zm-6.75 -6.93c-0.08,-0.17 -0.17,-0.34 -0.26,-0.53 -0.2,-0.41 -0.44,-0.89 -0.71,-1.45 0.68,-0.19 1.39,-0.3 2.11,-0.34l-1.14 2.32zm-3.86 -0.67c-0.03,0.06 -0.06,0.12 -0.08,0.18 -0.11,0.24 -0.22,0.46 -0.31,0.65 -0.09,0.2 -0.18,0.39 -0.27,0.56 -0.09,0.18 -0.18,0.38 -0.29,0.61 -0.11,0.22 -0.23,0.49 -0.37,0.79 -0.14,0.3 -0.32,0.67 -0.52,1.11 -0.21,0.43 -0.45,0.96 -0.74,1.56 -0.28,0.59 -0.61,1.29 -1,2.09l-0.28 -0.58c-0.19,-0.4 -0.19,-0.84 0,-1.24l2.07 -4.27c0.55,-0.55 1.16,-1.04 1.81,-1.46z"></path>    </g>    <path class="fil3" d="M0.18 0l1.44 0c0.13,0 0.26,0 0.39,0 0.13,0 0.25,0 0.37,0 0.19,0 0.37,0.01 0.53,0.03 0.17,0.02 0.33,0.07 0.47,0.15 0.15,0.08 0.28,0.19 0.41,0.34 0.12,0.15 0.22,0.35 0.34,0.6l3.84 7.93c0.3,0.61 0.65,1.34 1.05,2.19 0.33,-0.67 0.61,-1.24 0.83,-1.71l4.53 -9.48 0.28 0.58c0.19,0.4 0.19,0.84 -0,1.24l-6.08 12.57 -0.44 0 -5.54 -11.77c-0.19,-0.41 -0.37,-0.76 -0.55,-1.04 -0.18,-0.29 -0.37,-0.53 -0.58,-0.71 -0.21,-0.19 -0.44,-0.32 -0.7,-0.41 -0.23,-0.07 -0.49,-0.11 -0.78,-0.12l0.18 -0.38z"></path>    <path class="fil4" d="M6.71 6.44l1.26 2.6c0.3,0.61 0.65,1.34 1.05,2.19 0.33,-0.67 0.61,-1.24 0.83,-1.71l2.08 -4.34c0.37,0.01 0.73,0.04 1.09,0.09l-4.43 9.17 -0.44 0 -3.19 -6.79c0.55,-0.46 1.14,-0.87 1.76,-1.21z"></path>   </g>  </g> </g></svg>