<svg xmlns="http://www.w3.org/2000/svg" id="Layer_1" viewBox="0 0 207 35.4"><defs><style>      .st0 {        fill: #bd9a41;      }      .st1 {        fill: #fff;      }    </style></defs><path class="st1" d="M5.5,10.2c-.7,0-1.3-.1-1.9-.4-.6-.3-1.1-.6-1.6-1.1-.5-.5-.8-1-1.1-1.6-.3-.6-.4-1.3-.4-2s.1-1.4.4-2c.3-.6.6-1.1,1.1-1.6.5-.5,1-.8,1.6-1.1.6-.3,1.3-.4,2-.4s1.5.2,2.2.5c.7.3,1.2.7,1.7,1.3l-1.1,1.1c-.3-.4-.7-.7-1.2-.9-.5-.2-1-.3-1.6-.3s-1.3.2-1.8.5c-.5.3-.9.7-1.2,1.2-.3.5-.4,1.1-.4,1.8s.1,1.3.4,1.9c.3.5.7.9,1.2,1.2.5.3,1,.5,1.7.5s1.2-.1,1.7-.4c.5-.2.8-.6,1.1-1.1.3-.5.4-1.1.4-1.8l1,.7h-4.2v-1.5h4.9v.2c0,1.2-.2,2.2-.6,2.9-.4.8-1,1.4-1.7,1.8-.7.4-1.6.6-2.5.6ZM13.1,5.8v-1.3h2.5c.5,0,.9-.1,1.2-.4.3-.3.4-.6.4-1.1s-.1-.8-.4-1c-.3-.3-.7-.4-1.2-.4h-2.5V.1h2.6c.6,0,1.2.1,1.6.4.5.2.8.6,1.1,1,.3.4.4.9.4,1.5s-.1,1.1-.4,1.5c-.3.4-.6.8-1.1,1-.5.2-1,.4-1.6.4h-2.6ZM12,10V.1h1.6v9.9h-1.6ZM17.4,10l-3.5-4.3,1.5-.6,4,4.8h-2ZM24.5,10.2c-.7,0-1.4-.2-2-.5-.6-.3-1.1-.8-1.4-1.4-.3-.6-.5-1.3-.5-2V.1h1.6v6.1c0,.5,0,.9.3,1.3.2.3.5.6.8.8.3.2.7.3,1.2.3s.8,0,1.2-.3c.3-.2.6-.5.8-.8.2-.4.3-.8.3-1.2V.1h1.6v6.1c0,.7-.2,1.4-.5,2s-.8,1-1.4,1.4c-.6.3-1.3.5-2,.5ZM31.5,6.3v-1.4h2.5c.3,0,.6,0,.9-.2.3-.1.5-.3.6-.6.2-.3.2-.6.2-.9s0-.6-.2-.9c-.2-.3-.4-.4-.6-.6-.3-.1-.6-.2-.9-.2h-2.5V.1h2.6c.6,0,1.2.1,1.7.4.5.3.9.6,1.2,1.1.3.5.4,1,.4,1.6s-.1,1.2-.4,1.6c-.3.5-.7.8-1.2,1.1-.5.3-1,.4-1.7.4h-2.6ZM30.4,10V.1h1.6v9.9h-1.6ZM43.5,10.2c-.7,0-1.4-.1-2-.4-.6-.3-1.1-.6-1.6-1.1-.5-.5-.8-1-1.1-1.6-.3-.6-.4-1.3-.4-2s.1-1.4.4-2c.3-.6.6-1.1,1.1-1.6.5-.5,1-.8,1.6-1.1.6-.3,1.3-.4,2-.4s1.4.1,2,.4c.6.3,1.1.6,1.6,1.1.5.5.8,1,1.1,1.6.3.6.4,1.3.4,2s-.1,1.4-.4,2c-.3.6-.6,1.1-1.1,1.6-.5.5-1,.8-1.6,1.1-.6.3-1.3.4-1.9.4ZM43.4,8.6c.7,0,1.3-.2,1.8-.5.5-.3.9-.7,1.2-1.2.3-.5.4-1.2.4-1.9s0-1-.3-1.4c-.2-.4-.4-.8-.7-1.1-.3-.3-.7-.6-1.1-.7-.4-.2-.9-.3-1.4-.3s-1.2.2-1.8.5c-.5.3-.9.7-1.2,1.2-.3.5-.4,1.1-.4,1.8s0,1,.2,1.4c.2.4.4.8.7,1.1.3.3.7.6,1.1.7.4.2.9.3,1.4.3Z"></path><g><path class="st0" d="M187.4,20.7h0c0,0-40.8,0-40.8,0,4.3,0,7.2,2.9,7.2,7.1s-3,7.4-7.2,7.4h-1.3s41.7,0,41.7,0l7.4-7.4-7.1-7.1Z"></path><path class="st1" d="M15.8,35.2l-2-3.4h-5.2l1.4-2.4h2.3l-2.7-4.5-6.1,10.4H0l8.3-13.8c.4-.6.8-1,1.5-1s1.1.4,1.5,1l8.3,13.8h-3.7Z"></path><path class="st1" d="M21.9,35.2v-14.6h8.6c4.2,0,7.2,2.9,7.2,7.1s-3,7.4-7.2,7.4h-8.6ZM30.5,32c2.4,0,4.1-1.7,4.1-4.1s-1.7-4.2-4.1-4.2h-5.5v8.3h5.5Z"></path><path class="st1" d="M37.6,20.6h3.8l6.1,10.4,6.1-10.4h3.6l-8.3,13.8c-.4.6-.8,1-1.5,1s-1.1-.4-1.5-1l-8.3-13.8Z"></path><path class="st1" d="M64.2,35.2c-4.1,0-7.2-3.2-7.2-7.4s3-7.1,7.2-7.1h3.6c4.3,0,7.2,2.9,7.2,7.1s-3,7.4-7.2,7.4h-3.6ZM67.9,32c2.4,0,4.1-1.7,4.1-4.1s-1.7-4.2-4.1-4.2h-3.6c-2.3,0-4.1,1.7-4.1,4.2s1.7,4.1,4.1,4.1h3.6Z"></path><path class="st1" d="M93.6,26.5v8.6h-8.9c-4.1,0-7.2-3.2-7.2-7.4s3-7.1,7.2-7.1h8v3.1h-8c-2.3,0-4.1,1.7-4.1,4.2s1.7,4.1,4.1,4.1h5.8v-5.5h3.1Z"></path><path class="st1" d="M105.4,24.8l-6.1,10.4h-3.5l8.3-13.8c.4-.6.8-1,1.5-1s1.1.4,1.5,1l8.3,13.8h-3.7l-6.1-10.4Z"></path><path class="st1" d="M117.7,35.2v-14.6h8.6c4.2,0,7.2,2.9,7.2,7.1s-3,7.4-7.2,7.4h-8.6ZM126.2,32c2.4,0,4.1-1.7,4.1-4.1s-1.7-4.2-4.1-4.2h-5.5v8.3h5.5Z"></path><path class="st1" d="M143.1,35.2c-4.1,0-7.2-3.2-7.2-7.4s3-7.1,7.2-7.1h3.6c4.3,0,7.2,2.9,7.2,7.1s-3,7.4-7.2,7.4h-3.6ZM146.7,32c2.4,0,4.1-1.7,4.1-4.1s-1.7-4.2-4.1-4.2h-3.6c-2.3,0-4.1,1.7-4.1,4.2s1.7,4.1,4.1,4.1h3.6Z"></path><path class="st1" d="M164.9,35.2v-9.5c0-1.3-.6-1.9-1.7-1.9h-1.4v-3.1h1.4c3.1,0,4.8,1.9,4.8,5v9.5h-3.1Z"></path><path class="st1" d="M179,35.2c-4.4,0-7.8-3.3-7.8-7.4s3.4-7.1,7.8-7.1,7.8,3,7.8,7.1-3.4,7.4-7.8,7.4ZM179,23.7c-3,0-4.6,1.8-4.6,4.2s1.5,4.2,4.6,4.2,4.6-1.8,4.6-4.2-1.6-4.2-4.6-4.2Z"></path><g><polygon class="st1" points="200.3 28.5 197.8 31 201.9 35.2 207 35.2 200.3 28.5"></polygon><polygon class="st1" points="206.8 20.6 201.7 20.6 197.1 25.2 192.4 20.6 187.5 20.6 187.4 20.7 194.5 27.8 187.2 35.2 192.2 35.2 197.1 30.3 199.6 27.8 206.8 20.6"></polygon></g></g></svg>