<svg width="1262" height="1262" viewBox="0 0 1262 1262" fill="none" xmlns="http://www.w3.org/2000/svg">
<path d="M630.501 203.475C382.647 203.475 181.001 384.953 181.001 608.025C181.001 686.013 205.679 761.544 252.442 826.842C243.587 924.788 219.853 997.502 185.391 1031.95C180.836 1036.5 179.698 1043.47 182.574 1049.22C185.137 1054.36 190.366 1057.53 195.985 1057.53C196.674 1057.53 197.378 1057.48 198.082 1057.38C204.15 1056.52 345.114 1036.22 447.06 977.394C504.971 1000.75 566.642 1012.58 630.501 1012.58C878.355 1012.58 1080 831.097 1080 608.025C1080 384.953 878.355 203.475 630.501 203.475Z" fill="#3A5D9D"/>
<path d="M618.479 838.492C624.926 842.48 633.074 842.48 639.521 838.492L848.032 709.509C865.162 698.913 857.653 672.5 837.511 672.5H420.489C400.347 672.5 392.838 698.913 409.968 709.509L618.479 838.492Z" fill="white"/>
<rect x="604.985" y="334.906" width="45.4743" height="448.207" rx="22.7372" transform="rotate(-30.3752 604.985 334.906)" fill="white"/>
<rect x="604.985" y="334.906" width="45.4743" height="448.207" rx="22.7372" transform="rotate(-30.3752 604.985 334.906)" stroke="#3A5D9D" stroke-width="10"/>
<rect x="624.072" y="315.464" width="45.4743" height="449.078" rx="22.7372" transform="rotate(31.7479 624.072 315.464)" fill="white"/>
<rect x="624.072" y="315.464" width="45.4743" height="449.078" rx="22.7372" transform="rotate(31.7479 624.072 315.464)" stroke="#3A5D9D" stroke-width="10"/>
</svg>
