<svg width="1262" height="1262" viewBox="0 0 1262 1262" fill="none" xmlns="http://www.w3.org/2000/svg">
<path d="M631.501 204.475C879.355 204.475 1081 385.954 1081 609.025C1081 832.097 879.355 1013.58 631.501 1013.58C567.642 1013.58 505.971 1001.75 448.061 978.395C346.114 1037.22 205.15 1057.52 199.082 1058.38C198.378 1058.48 197.674 1058.53 196.984 1058.53C191.366 1058.53 186.136 1055.36 183.574 1050.22C180.697 1044.47 181.837 1037.5 186.392 1032.95C220.853 998.501 244.587 925.788 253.442 827.842C206.679 762.545 182.001 687.014 182.001 609.025C182.001 385.954 383.647 204.475 631.501 204.475ZM658.716 331.244C652.366 320.411 638.436 316.776 627.603 323.126C625.735 324.221 624.081 325.541 622.655 327.031C619.676 328.834 617.067 331.351 615.108 334.516L402.739 677.729C400.672 681.069 399.575 684.735 399.369 688.399C397.935 695.873 400.649 704.124 408.721 709.012L621.752 838.009C628.339 841.997 636.663 841.997 643.25 838.009L856.28 709.012C865.011 703.725 867.475 694.502 865.199 686.586C864.765 683.878 863.832 681.204 862.362 678.695L658.716 331.244ZM805.729 672H459.76L637.432 384.86L805.729 672Z" fill="white"/>
</svg>
